<svg width="40" height="40" fill="none" xmlns="http://www.w3.org/2000/svg"><path d="M20 0C8.956 0 0 8.956 0 20s8.956 20 20 20 20-8.956 20-20S31.044 0 20 0zm-5.812 30.234h-4.87V15.58h4.87v14.654zM11.753 13.58h-.032c-1.634 0-2.691-1.125-2.691-2.531 0-1.438 1.089-2.532 2.755-2.532s2.692 1.094 2.724 2.532c0 1.406-1.058 2.531-2.756 2.531zm19.999 16.655h-4.87v-7.84c0-1.97-.706-3.313-2.468-3.313-1.346 0-2.147.906-2.5 1.781-.128.313-.16.75-.16 1.189v8.183h-4.87s.064-13.279 0-14.654h4.87v2.075c.648-.998 1.806-2.419 4.39-2.419 3.205 0 5.608 2.095 5.608 6.596v8.402z"/></svg>