<svg width="20" height="20" fill="none" xmlns="http://www.w3.org/2000/svg"><g clip-path="url(#clip0)"><path d="M19.456 14.678l-2.791-2.791c-.997-.997-2.692-.598-3.09.698-.3.897-1.296 1.395-2.193 1.196-1.994-.498-4.685-3.09-5.184-5.184-.299-.897.3-1.894 1.196-2.193 1.296-.398 1.695-2.093.698-3.09L5.301.524c-.797-.698-1.994-.698-2.691 0L.716 2.416C-1.178 4.411.915 9.694 5.6 14.38c4.685 4.685 9.968 6.878 11.962 4.884l1.894-1.894c.698-.797.698-1.993 0-2.691z" fill="#C7A265"/></g><defs><clipPath id="clip0"><path fill="#fff" d="M0 0h20v20H0z"/></clipPath></defs></svg>