<svg width="20" height="20" fill="none" xmlns="http://www.w3.org/2000/svg"><path d="M18.125 6.25c-.754 0-1.386.538-1.53 1.25h-3.001l.469-.625A3.146 3.146 0 0014.687 5a3.129 3.129 0 00-3.124-3.125A3.129 3.129 0 008.437 5c0 .671.222 1.337.626 1.875l.468.625H3.406a1.565 1.565 0 00-1.531-1.25c-.862 0-1.563.7-1.563 1.563v8.75c0 .861.701 1.562 1.563 1.562h16.25c.862 0 1.563-.7 1.563-1.563v-8.75c0-.861-.701-1.562-1.563-1.562zM16.562 15h-1.25v-1.25h1.25V15zm0-1.875h-1.25a.626.626 0 00-.624.625V15c0 .345.28.625.624.625h1.25v.625h-1.25a.626.626 0 00-.624.625v.625h-.626v-3.438a.939.939 0 00-.937-.937h-2.813a.939.939 0 00-.937.938V17.5H8.75v-4.063a.312.312 0 00-.313-.312H6.25a.312.312 0 00-.313.313v.246a7.105 7.105 0 01-1.11 3.816H4.04c.83-1.2 1.272-2.6 1.272-4.063A.312.312 0 005 13.126H3.437V12.5h.938c.517 0 .938-.42.938-.938v-.886c0-.27.171-.508.427-.593l1.53-.51a1.25 1.25 0 00.855-1.186v-.262h.625v.524c0 .673-.43 1.27-1.068 1.482l-1.317.439a.624.624 0 00-.428.593v.4a.94.94 0 00.938.937h6.25c.517 0 .938-.42.938-.938V8.126h.624v3.438a.94.94 0 00.938.937h.938v.625zM13.438 17.5H10v-3.438c0-.172.14-.312.313-.312h2.812c.172 0 .313.14.313.313V17.5zm-5.312 0H5.559a7.722 7.722 0 001.003-3.75h1.563v3.75zm-4.688-5.625v-3.75H7.5v.262c0 .27-.172.507-.428.593l-1.53.51a1.25 1.25 0 00-.854 1.186v.886c0 .173-.14.313-.313.313h-.938zm13.126 0h-.938a.313.313 0 01-.313-.313V8.126h1.25v3.75zm-5-9.375a2.503 2.503 0 012 4l-2 2.667-2-2.667a2.503 2.503 0 012-4zm.937 7.188c0 .338-.43.624-.938.624s-.937-.286-.937-.624c0-.15.09-.296.24-.41l.447.597a.312.312 0 00.5 0l.448-.596c.15.114.24.258.24.409zm-2.01-.911c-.31.232-.49.56-.49.91 0 .69.7 1.25 1.563 1.25.861 0 1.562-.56 1.562-1.25 0-.35-.18-.678-.49-.91l.49-.652h.313v3.438c0 .172-.14.312-.313.312h-6.25a.313.313 0 01-.313-.313v-.4l1.317-.438a2.185 2.185 0 001.496-2.075v-.524H10l.49.652zM.936 7.813a.939.939 0 011.875 0v7.5a1.555 1.555 0 00-1.874 0v-7.5zm0 8.75a.939.939 0 011.875 0 .312.312 0 10.626 0V13.75H4.68a6.478 6.478 0 01-1.205 3.473l-.198.277H1.875a.939.939 0 01-.938-.938zm17.188.937h-2.813v-.625h1.563c.173 0 .313-.14.313-.313a.939.939 0 011.875 0 .94.94 0 01-.938.938zm.938-2.187a1.554 1.554 0 00-1.875 0v-7.5a.939.939 0 011.875 0v7.5z" fill="#C7A265"/><path d="M11.563 6.25a1.564 1.564 0 00-.001-3.125 1.564 1.564 0 00.001 3.125zm0-2.5a.939.939 0 010 1.875.939.939 0 010-1.875z" fill="#C7A265"/></svg>