<svg width="50" height="50" fill="none" xmlns="http://www.w3.org/2000/svg"><path d="M38.281 37.5a2.347 2.347 0 002.344-2.344 2.347 2.347 0 00-2.344-2.343 2.347 2.347 0 00-2.343 2.343A2.347 2.347 0 0038.28 37.5zm0-3.125a.782.782 0 11-.001 1.564.782.782 0 01.001-1.564z" fill="#C7A265"/><path d="M46.219 31.858a1.499 1.499 0 01.32-1.643l1.136-1.138-3.316-3.315-1.138 1.137c-.43.431-1.076.556-1.673.306a1.489 1.489 0 01-.923-1.38v-1.606h-1.602a13.84 13.84 0 00-.693-3.632l9.041-9.04a6.265 6.265 0 001.848-4.46A6.313 6.313 0 0042.913.78a6.265 6.265 0 00-4.458 1.847l-9.032 9.032a13.874 13.874 0 00-3.685-.688 6.252 6.252 0 00-5.425-3.16c-.595 0-1.168.09-1.715.245a7.784 7.784 0 00-6.88-4.15c-4.307 0-7.812 3.504-7.812 7.812 0 .598.074 1.187.207 1.764a4.694 4.694 0 00-3.332 4.486 4.692 4.692 0 004.688 4.687h5.667c-.13.773-.198 1.557-.198 2.344 0 1.72.317 3.119.83 4.314L4.8 36.284.921 46.367a2.102 2.102 0 002.712 2.712L13.717 45.2l5.097-5.097a2.336 2.336 0 00-.063.521c0 .602.235 1.147.61 1.563-.376.415-.61.96-.61 1.562a2.34 2.34 0 001.75 2.258 4.764 4.764 0 004.5 3.21 4.764 4.764 0 004.5-3.21 2.34 2.34 0 001.75-2.258c0-.059-.013-.113-.017-.17l.97.97 1.138-1.137c.43-.432 1.074-.557 1.672-.308.561.233.925.776.925 1.383v1.606h4.687v-1.606c0-.608.363-1.15.955-1.395a1.498 1.498 0 011.642.32l1.137 1.137 3.316-3.316-1.137-1.137c-.43-.431-.556-1.076-.307-1.673.232-.56.774-.924 1.382-.924h1.606v-4.688h-1.606c-.608 0-1.15-.363-1.394-.954zM34.513 34.16c.852-.832 1.706-1.682 2.443-2.665a3.86 3.86 0 011.325-.246 3.91 3.91 0 013.907 3.906 3.91 3.91 0 01-3.907 3.907 3.91 3.91 0 01-3.906-3.907c0-.338.052-.67.138-.995zm.938-18.506l3.611-3.613 2.802 2.802-4.173 4.172a14.177 14.177 0 00-2.24-3.361zm.81-8.624L37.5 5.792l6.708 6.708-1.24 1.24-6.707-6.709zm6.652-4.687a4.749 4.749 0 014.743 4.743 4.712 4.712 0 01-1.389 3.354l-.955.954-6.707-6.707.954-.955a4.714 4.714 0 013.354-1.39zm-7.757 5.792l2.802 2.802-3.61 3.61a14.163 14.163 0 00-3.36-2.243l4.168-4.17zM37.5 25c0 4.065-2.047 6.062-4.214 8.175-1.492 1.456-3.025 2.96-3.917 5.153a2.315 2.315 0 00-.463-.047h-3.125v-3.906a2.347 2.347 0 00-2.343-2.344h-1.563a.782.782 0 010-1.562h7.813a2.347 2.347 0 002.343-2.344 2.347 2.347 0 00-2.343-2.344h-6.25a.782.782 0 01-.782-.781v-2.344h3.907a3.91 3.91 0 003.906-3.906 3.91 3.91 0 00-3.907-3.906c-.021 0-.042.006-.064.006a6.15 6.15 0 00.064-.787 6.26 6.26 0 00-.184-1.482C32.606 13.275 37.5 18.621 37.5 25zM20.312 40.625c0-.431.351-.781.782-.781h7.812a.782.782 0 010 1.562h-7.812a.782.782 0 01-.782-.781zm-9.832 0l5.743-5.743c.96.953 1.853 1.917 2.51 3.091l-5.452 5.454-2.801-2.802zM2.344 17.969a3.128 3.128 0 013.125-3.125 3.128 3.128 0 013.125 3.125h1.562A4.69 4.69 0 005.67 13.29a6.257 6.257 0 016.05-7.823 6.23 6.23 0 015.444 3.205 6.255 6.255 0 00-3.061 4.707 3.124 3.124 0 00-2.383 3.026h1.562a1.564 1.564 0 013.125 0h1.563a3.12 3.12 0 00-2.293-2.998 4.69 4.69 0 014.636-4.033A4.692 4.692 0 0125 14.063c0 .41-.067.813-.172 1.205-1.281.641-2.172 1.954-2.172 3.482h1.563a2.347 2.347 0 012.343-2.344 2.347 2.347 0 012.344 2.344 2.347 2.347 0 01-2.343 2.344H5.468a3.128 3.128 0 01-3.125-3.125zm18.75 4.687V25a2.347 2.347 0 002.343 2.344h6.25a.782.782 0 010 1.562h-7.812a2.347 2.347 0 00-2.344 2.344 2.347 2.347 0 002.344 2.344h1.563c.43 0 .78.35.78.781v3.906h-3.124c-.159 0-.314.017-.463.047-.892-2.193-2.425-3.698-3.917-5.153C14.547 31.062 12.5 29.065 12.5 25c0-.79.095-1.573.24-2.344h8.354zm-5.987 11.132L9.375 39.52l-2.802-2.8 5.961-5.961c.734 1.151 1.643 2.112 2.573 3.03zm-9.34 4.333l6.112 6.113-5.175 1.99-2.928-2.928 1.99-5.175zm-2.694 9.5a.548.548 0 01-.73-.502.55.55 0 01.036-.192l.783-2.036 1.946 1.947-2.035.782zM25 47.655a3.21 3.21 0 01-2.753-1.562h5.506A3.21 3.21 0 0125 47.656zm3.906-3.125h-7.812a.782.782 0 010-1.562h7.812a.782.782 0 010 1.562zm18.75-8.593h-.043a3.057 3.057 0 00-2.836 1.915 3.056 3.056 0 00.656 3.349l.033.032-1.107 1.107-.032-.033a3.062 3.062 0 00-3.375-.646 3.05 3.05 0 00-1.89 2.826v.043H37.5v-.043a3.06 3.06 0 00-1.916-2.837 3.054 3.054 0 00-3.349.657l-.033.033-1.058-1.059a2.29 2.29 0 00.106-.657c0-.555-.202-1.058-.525-1.46.486-1.312 1.248-2.361 2.134-3.33.336 2.696 2.637 4.79 5.422 4.79a5.475 5.475 0 005.469-5.469 5.475 5.475 0 00-5.469-5.468c-.076 0-.15.007-.226.01.529-1.097.892-2.37.983-3.917h.025v.043c0 1.243.742 2.353 1.914 2.837a3.052 3.052 0 003.35-.656l.032-.033 1.107 1.106-.033.033c-.88.88-1.138 2.195-.646 3.373a3.048 3.048 0 002.826 1.891h.043v1.563z" fill="#C7A265"/></svg>