<svg width="496" height="764" viewBox="0 0 496 764" fill="none" xmlns="http://www.w3.org/2000/svg">
<path d="M483.5 17.5C483.5 17.5 275.207 44.9013 232.5 146.5C203.166 216.285 225.295 266.648 244 340C256.177 387.75 271.09 411.995 290 457.5C319.544 528.592 377.66 560.261 371.5 637C359.78 782.998 15 753.5 15 753.5" stroke="#B99978"/>
<path d="M495 25C495 25 298.488 52.3849 258.197 153.923C230.523 223.666 251.399 273.998 269.047 347.306C280.535 395.027 294.604 419.258 312.445 464.736C340.317 535.785 395.147 567.435 389.335 644.128C378.278 790.038 53 760.558 53 760.558" stroke="#B99978"/>
<path d="M16.9998 149C-14.9999 168 80.4148 160.284 120.999 156.847C242.494 146.559 302.313 36.1791 381.999 -14.4997" stroke="#B99978"/>
</svg>
