<svg width="25" height="25" fill="none" xmlns="http://www.w3.org/2000/svg"><path d="M3.582.614l7.193 7.014A9.157 9.157 0 0113 6.57a9.123 9.123 0 012.734-.417c5.108 0 9.265 4.227 9.265 9.423C25 20.773 20.843 25 15.735 25c-5.109 0-9.265-4.227-9.265-9.424 0-.618.059-1.236.176-1.837a.842.842 0 01.99-.674.853.853 0 01.662 1.007 7.915 7.915 0 00-.144 1.505c0 4.25 3.4 7.71 7.58 7.71 4.181 0 7.581-3.46 7.581-7.71 0-4.252-3.4-7.71-7.58-7.71-.763 0-1.515.114-2.237.34a7.648 7.648 0 00-3.829 2.744c-.009.012-.022.017-.032.029-.01.012-.013.028-.024.04-.03.034-.07.05-.105.077-.043.034-.083.07-.13.095a.72.72 0 01-.156.054c-.05.015-.1.031-.152.036-.054.005-.106-.002-.16-.008-.054-.006-.106-.01-.159-.026-.052-.016-.098-.045-.148-.072-.037-.02-.078-.028-.113-.055-.013-.01-.019-.025-.031-.035-.011-.01-.026-.013-.037-.023L.616 3.656A2.156 2.156 0 010 2.142C0 1.593.206 1.045.615.628A2.072 2.072 0 012.105 0c.563 0 1.09.223 1.477.614zM1.807 1.84c-.164.167-.164.439-.021.585l7.138 6.773c.161-.177.328-.348.501-.511L2.403 1.839a.415.415 0 00-.596 0z" fill="#fff"/><path d="M11.523 15.576a.85.85 0 00.843.857h6.738a.85.85 0 00.842-.857.85.85 0 00-.842-.856h-6.738a.85.85 0 00-.843.856z" fill="#fff"/><path d="M14.893 12.15v6.853a.85.85 0 00.842.857.85.85 0 00.842-.857V12.15a.85.85 0 00-.842-.857.85.85 0 00-.842.857z" fill="#fff"/></svg>