<svg width="149" height="350" viewBox="0 0 149 350" fill="none" xmlns="http://www.w3.org/2000/svg">
<path fill-rule="evenodd" clip-rule="evenodd" d="M147.191 0.0332031C180.607 0.0332031 213.051 11.3078 238.631 31.7826V31.7818C272.047 58.5113 291.701 96.5172 294.078 138.772C296.355 180.49 280.752 221.306 251.288 250.747L153.616 347.066C149.833 350.813 143.271 350.779 139.487 347.032L43.1958 250.816C13.6646 221.308 -1.97161 180.459 0.338644 138.773C2.68207 96.5197 22.3698 58.5139 55.7512 31.7826C81.2983 11.3078 113.776 0.0332031 147.191 0.0332031ZM81.5669 146.908C81.5669 183.073 110.997 212.481 147.191 212.481C183.385 212.481 212.85 183.074 212.816 146.908C212.816 110.742 183.386 81.3346 147.191 81.3346C110.998 81.3346 81.5669 110.742 81.5669 146.908Z" fill="white"/>
<path d="M147.191 114.946C129.546 114.946 115.216 129.265 115.216 146.897C115.216 164.528 129.546 178.847 147.191 178.847C164.837 178.847 179.167 164.528 179.167 146.897C179.167 129.265 164.837 114.946 147.191 114.946Z" fill="white"/>
</svg>
