<svg width="496" height="764" fill="none" xmlns="http://www.w3.org/2000/svg"><path d="M483.5 17.5s-208.293 27.401-251 129c-29.334 69.785-7.205 120.148 11.5 193.5 12.177 47.75 27.09 71.995 46 117.5 29.544 71.092 87.66 102.761 81.5 179.5C359.78 782.998 15 753.5 15 753.5" stroke="#B99978"/><path d="M495 25S298.488 52.385 258.197 153.923c-27.674 69.743-6.798 120.075 10.85 193.383 11.488 47.721 25.557 71.952 43.398 117.43 27.872 71.049 82.702 102.699 76.89 179.392C378.278 790.038 53 760.558 53 760.558M17 149c-32 19 63.415 11.284 103.999 7.847 121.495-10.288 181.314-120.668 261-171.347" stroke="#B99978"/></svg>