<svg width="63" height="84" fill="none" xmlns="http://www.w3.org/2000/svg"><path d="M0 0l30.5 25.667L61 0 49.604 40.333 61 56 30.5 37.667 0 56l13.742-33.333L0 0z" fill="#C7A265"/><path d="M8 8l22.5 18.792L53 8l-8.407 29.53L53 49 30.5 35.577 8 49l10.137-24.405L8 8z" fill="#444"/><path d="M13.2 79a96.7 96.7 0 00-1.824-2.928 119.737 119.737 0 00-2.088-3.168 66.489 66.489 0 00-2.208-3.096 50.861 50.861 0 00-2.112-2.712V79H1.992V62.368h2.472c.64.672 1.328 1.472 2.064 2.4a88.772 88.772 0 012.208 2.856 74.335 74.335 0 012.16 3c.704.992 1.328 1.92 1.872 2.784v-11.04h3V79H13.2zm17.766-6.288c0 .992-.144 1.896-.432 2.712-.288.816-.696 1.512-1.224 2.088a5.477 5.477 0 01-1.92 1.344c-.736.32-1.552.48-2.448.48-.896 0-1.712-.16-2.448-.48a5.531 5.531 0 01-1.896-1.344c-.528-.576-.944-1.272-1.248-2.088-.288-.816-.432-1.72-.432-2.712 0-.992.144-1.888.432-2.688.304-.816.72-1.512 1.248-2.088a5.498 5.498 0 011.92-1.32c.736-.32 1.544-.48 2.424-.48.88 0 1.688.16 2.424.48a5.22 5.22 0 011.92 1.32c.528.576.936 1.272 1.224 2.088.304.8.456 1.696.456 2.688zm-2.976 0c0-1.248-.272-2.232-.816-2.952-.528-.736-1.272-1.104-2.232-1.104-.96 0-1.712.368-2.256 1.104-.528.72-.792 1.704-.792 2.952 0 1.264.264 2.264.792 3 .544.736 1.296 1.104 2.256 1.104.96 0 1.704-.368 2.232-1.104.544-.736.816-1.736.816-3zm13.12-3.648a7.91 7.91 0 00-1.009-.24 6.57 6.57 0 00-2.496-.048c-.352.064-.6.12-.744.168V79h-2.904V67.048c.56-.208 1.256-.4 2.088-.576a12.728 12.728 0 012.808-.288c.192 0 .416.016.672.048.256.016.512.048.768.096.256.032.504.08.744.144.24.048.432.096.576.144l-.504 2.448zm9.68 3.336c0-1.312-.169-2.256-.505-2.832-.32-.592-.928-.888-1.824-.888-.32 0-.672.024-1.056.072-.384.048-.672.088-.864.12V79h-2.904V66.856c.56-.16 1.288-.312 2.184-.456a18.46 18.46 0 012.88-.216c.864 0 1.568.112 2.112.336.56.224 1.024.52 1.392.888a6.01 6.01 0 011.584-.792 7.344 7.344 0 011.056-.312c.384-.08.768-.12 1.152-.12.976 0 1.776.144 2.4.432.64.272 1.136.664 1.488 1.176.368.496.616 1.104.744 1.824.144.704.216 1.48.216 2.328V79h-2.904v-6.6c0-1.312-.16-2.256-.48-2.832-.32-.592-.936-.888-1.848-.888-.464 0-.904.08-1.32.24-.416.144-.728.288-.936.432.128.4.216.824.264 1.272.048.448.072.928.072 1.44V79H50.79v-6.6z" fill="#fff"/></svg>