<svg width="20" height="20" fill="none" xmlns="http://www.w3.org/2000/svg"><path d="M13.75 6.094a.47.47 0 000-.938H5a.469.469 0 000 .938h8.75z" fill="#C7A265"/><path d="M18.594 12.63V3.907a.939.939 0 00-.938-.937h-5.312V1.094a.939.939 0 00-.938-.938H7.344a.939.939 0 00-.938.938v1.875H1.094a.939.939 0 00-.938.937v11.25a.939.939 0 00.938.938h10.338a4.22 4.22 0 107.162-3.463zM7.344 1.095h4.062V2.97H7.344V1.094zm-6.25 2.812h16.562v5.625h-6.875v-.469a.469.469 0 00-.469-.468H8.438a.469.469 0 00-.47.469v.468H1.095V3.906zm7.812 5.625h.938v1.525l-.469.469-.469-.47V9.532zm-7.812.938h6.875v.781c0 .124.05.243.137.331l.938.938a.469.469 0 00.662 0l.938-.938a.469.469 0 00.137-.331v-.781h6.875v1.46a4.217 4.217 0 00-6.224 3.227H1.094V10.47zm15 8.403v-.434a.47.47 0 00-.938 0v.434a3.287 3.287 0 01-2.778-2.778h.434a.469.469 0 000-.938h-.434a3.287 3.287 0 012.778-2.778v.434a.469.469 0 10.938 0v-.434a3.287 3.287 0 012.778 2.778h-.434a.47.47 0 000 .938h.434a3.287 3.287 0 01-2.778 2.778z" fill="#C7A265"/><path d="M16.544 14.043l-1.012 1.011-.947-.473a.469.469 0 10-.42.838l1.25.625a.468.468 0 00.542-.088l1.25-1.25a.469.469 0 00-.663-.663z" fill="#C7A265"/></svg>