<svg width="186" height="186" viewBox="0 0 186 186" fill="none" xmlns="http://www.w3.org/2000/svg">
<path d="M186 63C186 57.372 183.327 52.119 178.875 48.741C180.093 45.183 180.327 41.388 179.544 37.629C177.927 29.883 171.933 23.619 164.271 21.666C160.656 20.745 156.942 20.787 153.411 21.765C150.48 18.6 146.625 16.395 142.428 15.483C138.924 6.279 129.963 0 120 0C110.994 0 102.957 4.914 98.823 12.732C94.998 11.76 91.005 11.76 87.177 12.732C83.043 4.914 75.006 0 66 0C55.911 0 47.085 6.219 43.59 15.447C42.072 15.15 40.539 15 39 15C26.706 15 16.539 24.294 15.159 36.225C6.579 37.59 0 45.042 0 54C0 62.904 6.501 70.317 15 71.751C14.991 72.369 15.015 72.99 15.069 73.611C15.879 82.8 24.03 90 33.624 90H36C37.653 90 39 91.347 39 93V111H69V99C69 97.344 70.347 96 72 96H86.022C89.466 103.257 96.843 108 105 108H114C115.653 108 117 109.344 117 111V123H147V111C147 109.344 148.347 108 150 108H158.34C169.635 108 179.124 99.483 179.94 88.611C180.219 84.888 179.544 81.273 177.975 77.991C182.934 74.694 186 69.111 186 63Z" fill="#F0BC5E"/>
<path d="M69 66C75.618 66 81 60.618 81 54H75C75 57.309 72.309 60 69 60C65.691 60 63 57.309 63 54V42C63 38.691 65.691 36 69 36C72.309 36 75 38.691 75 42H81C81 35.382 75.618 30 69 30C62.382 30 57 35.382 57 42V54C57 60.618 62.382 66 69 66Z" fill="black"/>
<path d="M99 66C105.618 66 111 60.618 111 54V42C111 35.382 105.618 30 99 30C92.382 30 87 35.382 87 42V54C87 60.618 92.382 66 99 66ZM93 42C93 38.691 95.691 36 99 36C102.309 36 105 38.691 105 42V54C105 57.309 102.309 60 99 60C95.691 60 93 57.309 93 54V42Z" fill="black"/>
<path d="M132 72H124.242L132.363 63.879C134.064 62.181 135 59.919 135 57.513V57C135 52.038 130.962 48 126 48C121.038 48 117 52.038 117 57V60H123V57C123 55.347 124.347 54 126 54C127.653 54 129 55.347 129 57V57.513C129 58.314 128.688 59.07 128.121 59.637L117 70.758V78H132V72Z" fill="black"/>
<path d="M39 33V27C32.382 27 27 32.382 27 39H33C33 35.691 35.691 33 39 33Z" fill="black"/>
<path d="M126 24H132C132 17.382 126.618 12 120 12V18C123.309 18 126 20.691 126 24Z" fill="black"/>
<path d="M178.698 180L177.006 177.183C167.19 160.818 162 142.08 162 123V120H102V123C102 136.827 99.201 150.684 93.891 163.47L92.514 160.254C86.865 147.066 84 133.11 84 118.77V108H24V118.77C24 133.11 21.135 147.069 15.486 160.254L7.023 180H0V186H186V180H178.698ZM156.042 126C156.096 128.007 156.234 130.005 156.396 132H107.631C107.796 130.002 107.904 128.001 107.961 126H156.042ZM106.971 138H157.065C159.078 152.793 164.016 167.091 171.711 180H100.977L97.104 170.964C102.06 160.581 105.408 149.409 106.971 138ZM78.813 132H29.187C29.424 130.008 29.61 128.01 29.739 126H78.258C78.39 128.01 78.576 130.008 78.813 132ZM30 114H78V118.77C78 119.181 78.027 119.589 78.03 120H29.97C29.973 119.589 30 119.181 30 118.77V114ZM21 162.615C24.411 154.653 26.829 146.418 28.302 138H79.695C81.168 146.418 83.586 154.653 86.997 162.615L94.452 180H13.548L21 162.615Z" fill="black"/>
</svg>
