<svg width="134" height="134" viewBox="0 0 134 134" fill="none" xmlns="http://www.w3.org/2000/svg">
<path d="M70.2453 105.839L73.2813 129.812H60.7188L62.666 104.52C62.7706 103.85 62.8125 103.201 62.8125 102.594H67L70.2453 105.839Z" fill="#FF826E"/>
<path d="M43.885 107.514C46.5022 110.591 50.8991 112.936 52.3438 117.25C59.5044 113.669 62.0797 108.54 62.666 104.52L60.7188 129.812H43.9688V108.875H43.885V107.514Z" fill="#B4DD7F"/>
<path d="M41.875 102.594C41.875 104.562 42.6916 106.111 43.885 107.514V108.875H41.875L31.49 110.173C27.47 110.676 23.45 109.294 20.5816 106.425C18.1319 103.976 16.75 100.647 16.75 97.1709V75.375H29.3125V94.9725C29.3125 95.8309 29.6475 96.6475 30.2547 97.2547C30.8619 97.8619 31.6785 98.1969 32.516 98.1969C32.6835 98.1969 32.851 98.1759 33.0185 98.155L43.8013 96.5009C43.2988 97.1081 41.875 99.1391 41.875 102.594Z" fill="#B4DD7F"/>
<path d="M98.3853 97.7572L100.982 98.155C101.987 98.3225 103.013 97.9875 103.745 97.2547C104.353 96.6475 104.688 95.8309 104.688 94.9725V75.375H117.25V97.1709C117.25 100.647 115.868 103.976 113.418 106.425C110.948 108.896 107.598 110.278 104.143 110.278C103.599 110.278 103.054 110.236 102.51 110.173L92.125 108.875H90.0313V129.812H73.2813L70.2453 105.839L75.375 110.969L78.9763 94.7631L98.3853 97.7572Z" fill="#B4DD7F"/>
<path d="M78.9763 94.7631L75.375 110.969L70.2453 105.839L67 102.594L75.375 94.2188L78.9763 94.7631Z" fill="#A0D468"/>
<path d="M43.8431 96.48C40.5141 93.7372 37.6875 90.1359 37.6875 85.8438C37.6875 77.4688 43.9688 75.375 43.9688 75.375V59.6719C43.9688 53.6 46.4394 48.1144 50.4175 44.1363C54.3956 40.1581 59.8813 37.6875 65.9531 37.6875C78.0969 37.6875 87.9375 47.5281 87.9375 59.6719V60.7188C87.9375 60.7188 92.125 64.9062 92.125 71.1875C92.125 77.4688 90.0313 79.5625 90.0313 85.8438C90.0313 90.3662 97.82 91.9994 98.3853 97.7572L78.9763 94.7631L75.375 94.2188V87.9375L75.1866 87.5397C79.1019 84.9016 81.6563 80.4419 81.6563 75.375V60.7188H72.4647C67.5235 60.7188 62.7288 59.2531 58.625 56.5312L52.3438 60.7188V75.375C52.3438 79.4369 53.9769 83.08 56.636 85.7391C57.8085 86.9116 59.1903 87.8956 60.7188 88.6075V88.6284C60.6978 90.45 60.5094 92.8578 58.96 94.5537C61.0538 96.6475 62.8125 98.4062 62.8125 102.594L62.666 104.52C62.0797 108.54 59.5044 113.67 52.3438 117.25C50.8991 112.937 46.5022 110.592 43.885 107.514C42.6916 106.111 41.875 104.562 41.875 102.594C41.875 99.1391 43.2988 97.1081 43.8013 96.5009H43.8641L43.8431 96.48Z" fill="#656D78"/>
<path d="M33.5 69.5125C33.5 70.5803 33.0813 71.6062 32.3066 72.3809L29.3125 75.375H16.75V62.8125C16.75 60.5094 18.6344 58.625 20.9375 58.625H25.125C27.4281 58.625 29.3125 60.5094 29.3125 62.8125V64.9062L31.2597 65.8694C32.6416 66.5603 33.5 67.9631 33.5 69.5125Z" fill="#F0D0B4"/>
<path d="M117.25 62.8125V75.375H104.688L101.693 72.3809C100.919 71.6062 100.5 70.5803 100.5 69.5125C100.5 67.9631 101.358 66.5603 102.74 65.8694L104.688 64.9062V62.8125C104.688 60.5094 106.572 58.625 108.875 58.625H113.062C115.366 58.625 117.25 60.5094 117.25 62.8125Z" fill="#F0D0B4"/>
<path d="M75.375 87.9369V94.2181L67 102.593H62.8125C62.8125 98.4056 61.0538 96.6469 58.96 94.5531C60.5094 92.8572 60.6978 90.4494 60.7188 88.6278V88.6069C62.6241 89.5281 64.7388 90.0306 67 90.0306C70.0569 90.0306 72.8625 89.1094 75.1866 87.5391L75.375 87.9369Z" fill="#F0D0B4"/>
<path d="M81.6563 60.7188V75.375C81.6563 80.4419 79.1019 84.9016 75.1866 87.5397C72.8625 89.11 70.0569 90.0312 67 90.0312C64.7388 90.0312 62.6241 89.5287 60.7188 88.6075C59.1903 87.8956 57.8085 86.9116 56.636 85.7391C53.9769 83.08 52.3438 79.4369 52.3438 75.375V60.7188L58.625 56.5312C62.7288 59.2531 67.5235 60.7188 72.4647 60.7188H81.6563Z" fill="#F0D0B4"/>
<path d="M67 29.3125C73.9381 29.3125 79.5625 23.6881 79.5625 16.75C79.5625 9.81192 73.9381 4.1875 67 4.1875C60.0619 4.1875 54.4375 9.81192 54.4375 16.75C54.4375 23.6881 60.0619 29.3125 67 29.3125Z" fill="#FF826E"/>
<path d="M27.2188 41.875V43.9688C27.2188 47.4444 24.4131 50.25 20.9375 50.25C19.1997 50.25 17.6294 49.5381 16.4988 48.4075C15.3681 47.2769 14.6563 45.7066 14.6563 43.9688V41.875H20.9375H27.2188Z" fill="#AAB2BD"/>
<path d="M27.2188 40.2206V41.8747H20.9375H14.6563V40.3044C14.6563 38.2106 13.6931 36.1797 11.9344 35.0491C6.70001 31.72 3.4547 25.5644 4.33408 18.7388C5.27626 11.2222 11.4528 5.15031 18.9903 4.29188C29.1031 3.16125 37.6875 11.0338 37.6875 20.9372C37.6875 26.8625 34.6097 32.055 29.9825 35.0281C28.2238 36.1587 27.2188 38.1269 27.2188 40.2206Z" fill="#FFEAA7"/>
<path d="M20.9375 25.125C23.2502 25.125 25.125 23.2502 25.125 20.9375C25.125 18.6248 23.2502 16.75 20.9375 16.75C18.6248 16.75 16.75 18.6248 16.75 20.9375C16.75 23.2502 18.6248 25.125 20.9375 25.125Z" fill="#FCD770"/>
<path d="M129.812 20.9375V29.3125L124.515 31.0713C124.39 31.3853 124.285 31.6784 124.138 31.9716L126.651 36.9756L120.726 42.9009L115.722 40.3884C115.428 40.535 115.135 40.6397 114.821 40.7653L113.062 46.0625H104.688L102.929 40.7653C102.615 40.6397 102.322 40.535 102.028 40.3884L97.0244 42.9009L91.0991 36.9756L93.6116 31.9716C93.465 31.6784 93.3603 31.3853 93.2347 31.0713L87.9375 29.3125V20.9375L93.2347 19.1788C93.3603 18.8647 93.465 18.5716 93.6116 18.2784L91.0991 13.2744L97.0244 7.34906L102.028 9.86156C102.322 9.715 102.615 9.61031 102.929 9.48469L104.688 4.1875H113.062L114.821 9.48469C115.135 9.61031 115.428 9.715 115.722 9.86156L120.726 7.34906L126.651 13.2744L124.138 18.2784C124.285 18.5716 124.39 18.8647 124.515 19.1788L129.812 20.9375ZM117.25 25.125C117.25 20.4978 113.502 16.75 108.875 16.75C104.248 16.75 100.5 20.4978 100.5 25.125C100.5 29.7522 104.248 33.5 108.875 33.5C113.502 33.5 117.25 29.7522 117.25 25.125Z" fill="#FCD770"/>
<path d="M113.062 56.5312H108.875C105.412 56.5312 102.594 59.3494 102.594 62.8125V63.6123L101.807 64.0059C99.7086 65.0549 98.4062 67.1633 98.4062 69.5062C98.4062 71.1498 99.0469 72.6929 100.207 73.8549L102.594 76.2418V94.9809C102.594 95.2761 102.472 95.565 102.265 95.7744C102.012 96.0257 101.654 96.1429 101.302 96.0906L100.117 95.9084C99.2438 93.0295 96.9867 91.1137 95.1044 89.535C93.2514 87.9815 92.125 86.9555 92.125 85.8438C92.125 82.9607 92.6045 81.047 93.1091 79.0244C93.6534 76.8427 94.2188 74.5857 94.2188 71.1875C94.2188 65.5909 91.3294 61.4872 90.0312 59.9252V59.6719C90.0312 46.3954 79.2296 35.5938 65.9531 35.5938C52.6767 35.5938 41.875 46.3954 41.875 59.6719V74.058C39.641 75.3247 35.5938 78.6182 35.5938 85.8438C35.5938 89.3968 37.185 92.4726 39.4107 95.0563L32.7023 96.0885C32.3401 96.1429 31.9883 96.0236 31.7371 95.7723C31.5277 95.5629 31.4083 95.274 31.4083 94.9788V76.2397L33.7952 73.8528C34.9531 72.695 35.5938 71.1498 35.5938 69.5062C35.5938 67.1612 34.2914 65.0549 32.1935 64.0059L31.4062 63.6123V62.8125C31.4062 59.3494 28.5881 56.5312 25.125 56.5312H20.9375C17.4744 56.5312 14.6562 59.3494 14.6562 62.8125V97.1626C14.6562 101.222 16.237 105.041 19.1097 107.916C22.4513 111.256 27.0575 112.843 31.7475 112.25L41.875 110.985V131.906H92.125V110.985L102.252 112.25C106.938 112.845 111.547 111.256 114.89 107.914C117.763 105.041 119.344 101.222 119.344 97.1626V62.8125C119.344 59.3494 116.526 56.5312 113.062 56.5312ZM103.68 67.7517L106.781 66.2002V62.8125C106.781 61.6588 107.719 60.7188 108.875 60.7188H113.062C114.218 60.7188 115.156 61.6588 115.156 62.8125V73.2812H105.554L103.167 70.8944C102.799 70.5238 102.594 70.0317 102.594 69.5062C102.594 68.7587 103.008 68.0867 103.68 67.7517ZM44.6304 77.362L46.0625 76.8846V59.6719C46.0625 48.7048 54.9861 39.7812 65.9531 39.7812C76.9202 39.7812 85.8438 48.7048 85.8438 59.6719V61.5856L86.4572 62.199C86.4928 62.2346 90.0312 65.8359 90.0312 71.1875C90.0312 74.0706 89.5518 75.9843 89.0472 78.0068C88.5028 80.1885 87.9375 82.4456 87.9375 85.8438C87.9375 88.9907 90.316 90.9839 92.4139 92.7427C93.3477 93.5257 94.2523 94.2857 94.9578 95.1128L77.4688 92.4223V88.4295C81.2919 85.3559 83.75 80.6512 83.75 75.375V58.625H72.4542C67.9296 58.625 63.5495 57.2997 59.7849 54.7892L58.625 54.0146L50.25 59.5986V75.375C50.25 81.5369 53.6042 86.9158 58.5706 89.8261C58.468 91.0635 58.1832 92.2862 57.4064 93.1363L56.0581 94.6166L57.4734 96.0319C59.4876 98.044 60.702 99.2668 60.7167 102.546L60.5827 104.285C60.1744 106.942 58.6208 111.036 53.2922 114.329C51.9752 112.11 50.0616 110.424 48.3237 108.896C47.4486 108.125 46.6969 107.441 46.0625 106.785V106.781H46.0583C44.7372 105.416 43.9688 104.179 43.9688 102.594C43.9688 101.338 44.1949 100.341 44.4712 99.5808C48.8744 102.705 53.3362 104.415 53.7026 104.554L55.1745 100.632C50.8928 99.0281 39.7812 93.241 39.7812 85.8438C39.7812 79.171 44.4503 77.4248 44.6304 77.362ZM67 87.9375C60.0718 87.9375 54.4375 82.3032 54.4375 75.375V61.8389L58.6585 59.0249C62.8334 61.506 67.5716 62.8125 72.4542 62.8125H79.5625V75.375C79.5625 82.3032 73.9282 87.9375 67 87.9375ZM67 92.125C69.2215 92.125 71.3403 91.6811 73.2812 90.8918V93.3519L66.1332 100.5H64.7429C64.3221 97.663 63.0721 95.854 61.6463 94.313C62.1174 93.4085 62.3937 92.4537 62.5633 91.5094C63.9808 91.8989 65.4632 92.125 67 92.125ZM64.7555 104.688H66.1332L68.25 106.804L70.9048 127.719H62.98L64.7471 104.755C64.7492 104.731 64.7513 104.711 64.7555 104.688ZM69.9606 102.594L76.1057 96.4486L76.4449 96.5009L74.1585 106.79L69.9606 102.594ZM20.9375 60.7188H25.125C26.2808 60.7188 27.2188 61.6588 27.2188 62.8125V66.2002L30.3196 67.7517C30.9917 68.0867 31.4062 68.7587 31.4062 69.5062C31.4062 70.0297 31.2011 70.5238 30.8326 70.8944L28.4457 73.2812H18.8438V62.8125C18.8438 61.6588 19.7818 60.7188 20.9375 60.7188ZM31.2283 108.096C27.8155 108.517 24.4927 107.376 22.0702 104.955C19.9911 102.872 18.8438 100.104 18.8438 97.1626V77.4688H27.2188V94.9809C27.2188 96.3983 27.7715 97.7321 28.7744 98.735C29.9637 99.9263 31.6701 100.481 33.3367 100.228L40.2209 99.1684C39.9613 100.148 39.7812 101.281 39.7812 102.594C39.7812 104.244 40.223 105.653 40.914 106.901L31.2283 108.096ZM46.0625 112.491C47.9343 114.149 49.6449 115.774 50.3589 117.912L51.121 120.202L53.2797 119.122C56.0664 117.729 58.1769 116.136 59.7975 114.488L58.7799 127.719H46.0625V112.491ZM111.93 104.953C109.507 107.376 106.18 108.519 102.772 108.096L92.3846 106.798L87.9375 106.781V127.719H75.1258L73.0844 111.639L76.5915 115.146L80.5926 97.1395L100.665 100.228C102.326 100.481 104.034 99.9242 105.226 98.735C106.229 97.7321 106.781 96.3983 106.781 94.9809V77.4688H115.156V97.1626C115.156 100.104 114.009 102.872 111.93 104.953Z" fill="black"/>
<path d="M67 31.4062C75.0798 31.4062 81.6562 24.8319 81.6562 16.75C81.6562 8.66813 75.0798 2.09375 67 2.09375C58.9202 2.09375 52.3438 8.66813 52.3438 16.75C52.3438 24.8319 58.9202 31.4062 67 31.4062ZM67 6.28125C72.7725 6.28125 77.4688 10.9775 77.4688 16.75C77.4688 22.5225 72.7725 27.2188 67 27.2188C61.2275 27.2188 56.5312 22.5225 56.5312 16.75C56.5312 10.9775 61.2275 6.28125 67 6.28125Z" fill="black"/>
<path d="M74.7616 14.0426L71.801 11.082L64.9063 17.9768L62.199 15.2695L59.2385 18.2301L64.9063 23.8979L74.7616 14.0426Z" fill="black"/>
<path d="M20.9375 52.3445C25.5563 52.3445 29.3125 48.5883 29.3125 43.9695V40.2175C29.3125 38.8168 30.0034 37.5019 31.1173 36.7858C36.5422 33.2976 39.7813 27.3744 39.7813 20.9382C39.7813 15.5782 37.4865 10.4548 33.4874 6.88289C29.4926 3.31096 24.1242 1.61083 18.7495 2.21802C10.2657 3.17905 3.32907 10.013 2.25079 18.4718C1.31488 25.8167 4.5916 32.8454 10.8038 36.8151C11.8883 37.5103 12.5625 38.8461 12.5625 40.3054V43.9695C12.5625 48.5883 16.3187 52.3445 20.9375 52.3445ZM20.9375 48.157C18.6281 48.157 16.75 46.2789 16.75 43.9695H25.125C25.125 46.2789 23.2469 48.157 20.9375 48.157ZM18.8438 20.9382C18.8438 19.7846 19.7818 18.8445 20.9375 18.8445C22.0933 18.8445 23.0313 19.7846 23.0313 20.9382C23.0313 22.0919 22.0933 23.032 20.9375 23.032C19.7818 23.032 18.8438 22.0919 18.8438 20.9382ZM6.40688 19.0015C7.24229 12.4334 12.6337 7.12367 19.2206 6.3783C19.8027 6.31339 20.3806 6.28199 20.9543 6.28199C24.5681 6.28199 27.9767 7.57383 30.6986 10.0047C33.8078 12.7831 35.5938 16.7696 35.5938 20.9382C35.5938 25.9423 33.075 30.5506 28.854 33.2641C26.6388 34.6858 25.2862 37.0999 25.1522 39.782H23.0313V26.8342C25.4621 25.9674 27.2188 23.6643 27.2188 20.9382C27.2188 17.4752 24.4006 14.657 20.9375 14.657C17.4744 14.657 14.6563 17.4752 14.6563 20.9382C14.6563 23.6643 16.4129 25.9674 18.8438 26.8342V39.782H16.7186C16.5637 37.0769 15.2299 34.6732 13.0566 33.2872C8.22635 30.1989 5.67617 24.7258 6.40688 19.0015Z" fill="black"/>
<path d="M131.906 19.4279L126.766 17.7131L129.189 12.8682L121.132 4.81144L116.285 7.236L114.572 2.09375H103.18L101.467 7.236L96.6203 4.81144L88.5635 12.8682L90.986 17.7131L85.8438 19.4279V30.82L90.9839 32.5348L88.5615 37.3797L96.6182 45.4365L101.465 43.0119L103.178 48.1562H114.57L116.283 43.014L121.13 45.4386L129.186 37.3818L126.764 32.5369L131.906 30.8221V19.4279ZM127.719 27.8029L122.916 29.4046L122.562 30.328C122.457 30.596 122.352 30.8619 122.237 31.1215L121.831 32.0281L124.094 36.5548L120.307 40.3424L115.78 38.079L114.874 38.4852C114.616 38.6004 114.354 38.7051 114.088 38.8056L113.157 39.1573L111.553 43.9688H106.195L104.591 39.1573L103.659 38.8056C103.394 38.7051 103.132 38.6004 102.874 38.4852L101.968 38.079L97.441 40.3424L93.6535 36.5548L95.9168 32.0281L95.5106 31.1215C95.3934 30.8598 95.2908 30.596 95.1861 30.328L94.8322 29.4046L90.0313 27.8029V22.445L94.8343 20.8433L95.1882 19.9199C95.2929 19.6519 95.3975 19.386 95.5127 19.1264L95.9189 18.2198L93.6555 13.6931L97.4431 9.90553L101.97 12.1689L102.876 11.7627C103.134 11.6475 103.396 11.5428 103.662 11.4423L104.593 11.0906L106.197 6.28125H111.555L113.159 11.0927L114.091 11.4444C114.356 11.5449 114.618 11.6496 114.876 11.7648L115.782 12.171L120.309 9.90762L124.097 13.6952L121.833 18.2219L122.239 19.1285C122.357 19.3902 122.459 19.654 122.564 19.922L122.918 20.8454L127.719 22.4471V27.8029Z" fill="black"/>
<path d="M108.875 14.6562C103.103 14.6562 98.4062 19.3525 98.4062 25.125C98.4062 30.8975 103.103 35.5938 108.875 35.5938C114.647 35.5938 119.344 30.8975 119.344 25.125C119.344 19.3525 114.647 14.6562 108.875 14.6562ZM108.875 31.4062C105.412 31.4062 102.594 28.5881 102.594 25.125C102.594 21.6619 105.412 18.8438 108.875 18.8438C112.338 18.8438 115.156 21.6619 115.156 25.125C115.156 28.5881 112.338 31.4062 108.875 31.4062Z" fill="black"/>
</svg>
