<svg width="145" height="137" viewBox="0 0 145 137" fill="none" xmlns="http://www.w3.org/2000/svg">
<path d="M110.071 25.929C109.624 25.9286 109.185 25.8069 108.802 25.5769C108.418 25.3468 108.105 25.017 107.894 24.6227C107.683 24.2283 107.583 23.7841 107.605 23.3375C107.626 22.8908 107.769 22.4584 108.017 22.0863L114.937 11.7057C115.117 11.4337 115.348 11.1999 115.618 11.0176C115.888 10.8353 116.191 10.7082 116.51 10.6435C116.829 10.5788 117.158 10.5778 117.478 10.6406C117.797 10.7034 118.101 10.8288 118.372 11.0094C118.643 11.1901 118.876 11.4226 119.057 11.6934C119.237 11.9643 119.363 12.2682 119.426 12.5877C119.489 12.9073 119.488 13.2361 119.424 13.5553C119.359 13.8746 119.232 14.1779 119.05 14.4479L112.13 24.8286C111.904 25.1675 111.598 25.4454 111.239 25.6374C110.88 25.8294 110.478 25.9296 110.071 25.929V25.929Z" fill="#48351B"/>
<path d="M60.1476 50.1502H46.0664L39.2744 45.6222C39.0044 45.4401 38.7011 45.3132 38.3819 45.2487C38.0626 45.1842 37.7338 45.1834 37.4143 45.2464C37.0947 45.3094 36.7908 45.4349 36.52 45.6158C36.2491 45.7966 36.0167 46.0292 35.836 46.3002C35.6553 46.5711 35.53 46.8751 35.4672 47.1947C35.4044 47.5143 35.4053 47.8431 35.47 48.1623C35.5347 48.4815 35.6619 48.7847 35.8442 49.0546C36.0265 49.3245 36.2603 49.5557 36.5322 49.735L42.3491 53.6129L37.8196 57.0113L31.8597 53.0382C31.5897 52.8561 31.2863 52.7292 30.9671 52.6647C30.6479 52.6002 30.3191 52.5994 29.9995 52.6624C29.68 52.7254 29.3761 52.8509 29.1052 53.0318C28.8343 53.2126 28.6019 53.4452 28.4212 53.7162C28.2405 53.9871 28.1152 54.2911 28.0524 54.6107C27.9896 54.9303 27.9906 55.2591 28.0553 55.5783C28.12 55.8975 28.2471 56.2007 28.4294 56.4706C28.6117 56.7405 28.8455 56.9717 29.1175 57.151L36.5322 62.0941C36.9577 62.3778 37.4607 62.5226 37.9718 62.5084C38.483 62.4942 38.9772 62.3219 39.3863 62.015L48.6133 55.0934H60.1476C60.8031 55.0934 61.4318 54.833 61.8953 54.3695C62.3588 53.9059 62.6192 53.2773 62.6192 52.6218C62.6192 51.9663 62.3588 51.3376 61.8953 50.8741C61.4318 50.4106 60.8031 50.1502 60.1476 50.1502V50.1502Z" fill="#48351B"/>
<path d="M52.7304 29.554C52.2432 29.5541 51.7669 29.4096 51.3618 29.1388L41.4754 22.5477C41.1369 22.322 40.8594 22.0162 40.6674 21.6575C40.4754 21.2988 40.375 20.8982 40.375 20.4913V13.0766C40.375 12.4211 40.6354 11.7924 41.0989 11.3289C41.5624 10.8654 42.1911 10.605 42.8466 10.605C43.5021 10.605 44.1307 10.8654 44.5942 11.3289C45.0577 11.7924 45.3181 12.4211 45.3181 13.0766V19.1687L54.104 25.0258C54.5457 25.3201 54.8808 25.7488 55.0599 26.2484C55.239 26.748 55.2525 27.292 55.0985 27.7999C54.9444 28.3078 54.631 28.7526 54.2045 29.0685C53.778 29.3844 53.2612 29.5546 52.7304 29.554V29.554Z" fill="#48351B"/>
<path d="M70.1094 18.0952C69.7848 18.0957 69.4632 18.032 69.1633 17.9077C68.8634 17.7835 68.5909 17.6012 68.3617 17.3714L60.8715 9.88123C60.642 9.65171 60.46 9.37924 60.3358 9.07937C60.2116 8.77949 60.1477 8.45809 60.1477 8.13351V3.19034C60.1477 2.53483 60.4081 1.90617 60.8716 1.44266C61.3351 0.979149 61.9637 0.71875 62.6193 0.71875C63.2748 0.71875 63.9034 0.979149 64.3669 1.44266C64.8304 1.90617 65.0908 2.53483 65.0908 3.19034V7.10996L71.8568 13.8759C72.2025 14.2216 72.4379 14.662 72.5333 15.1414C72.6287 15.6209 72.5797 16.1179 72.3926 16.5695C72.2056 17.0211 71.8887 17.4072 71.4823 17.6787C71.0758 17.9503 70.5979 18.0953 70.1091 18.0952H70.1094Z" fill="#48351B"/>
<path d="M55.2045 102.054L67.5624 79.8095L65.0908 62.5084L50.2613 42.7357V25.4346L62.6193 20.4914L79.9204 0.71875H92.2783V8.13351H84.8635L70.034 27.9062L60.1477 32.8494V40.2641L72.5056 55.0937L87.3351 45.2073L92.2783 30.3778L109.579 20.4914H124.409L121.937 27.9062H112.051L99.6931 35.321L97.2215 50.1505L79.9204 64.98L84.8635 77.3379V87.2243L92.2783 94.6391V102.054H55.2045Z" fill="#5F4623"/>
<path d="M119.466 95.0141V87.2242L134.295 77.3379V92.1674L141.71 102.054H114.523L119.466 95.0141Z" fill="#48351B"/>
<path d="M134.796 102.054H128.855L124.823 96.0106C124.554 95.6038 124.41 95.1268 124.409 94.6389V83.9277L129.352 80.6343V93.8912L134.796 102.054Z" fill="#48351B"/>
<path d="M135.645 107.785C135.376 107.965 135.073 108.091 134.754 108.154C134.436 108.218 134.108 108.217 133.79 108.154C133.471 108.09 133.169 107.964 132.899 107.783C132.63 107.602 132.399 107.369 132.219 107.099L128.855 102.054L124.823 96.0106C124.554 95.6038 124.41 95.1268 124.409 94.6389V83.9277L129.352 80.6343V93.8912L134.796 102.054L136.331 104.358C136.511 104.628 136.637 104.931 136.7 105.249C136.763 105.568 136.762 105.895 136.699 106.214C136.635 106.532 136.509 106.834 136.328 107.104C136.148 107.374 135.916 107.605 135.645 107.785V107.785Z" fill="#5F4623"/>
<path d="M67.56 104.525C67.1127 104.525 66.674 104.403 66.2908 104.173C65.1205 103.47 63.4247 104.147 64.1282 102.976L72.5068 89.0115V84.7523C72.5068 84.0968 72.7672 83.4682 73.2307 83.0047C73.6943 82.5412 74.3229 82.2808 74.9784 82.2808C75.6339 82.2808 76.2626 82.5412 76.7261 83.0047C77.1896 83.4682 77.45 84.0968 77.45 84.7523V89.6955C77.4499 90.1435 77.3282 90.583 77.0978 90.9672L69.6831 103.325C69.4631 103.692 69.1519 103.995 68.7798 104.205C68.4077 104.415 67.9874 104.526 67.56 104.525V104.525Z" fill="#48351B"/>
<path d="M77.4463 104.526C76.959 104.526 76.4826 104.381 76.0777 104.11C74.942 103.353 72.8584 104.501 73.6156 103.365L80.3356 93.2677C80.7009 92.7262 81.2657 92.3513 81.9066 92.2249C82.5474 92.0986 83.2123 92.231 83.7558 92.5934C84.2993 92.9558 84.6772 93.5186 84.807 94.1588C84.9367 94.799 84.8078 95.4646 84.4483 96.01L79.5051 103.425C79.2794 103.764 78.9733 104.042 78.614 104.234C78.2548 104.426 77.8537 104.526 77.4463 104.526Z" fill="#48351B"/>
<path d="M0.829575 102.054H144.182V136.656H0.829575V102.054Z" fill="#C38325"/>
<path d="M47.7897 102.054V108.445L38.6272 117.608C38.1637 118.071 37.9032 118.7 37.9032 119.355C37.9032 120.011 38.1637 120.64 38.6272 121.103C39.0907 121.567 39.7194 121.827 40.3749 121.827C41.0304 121.827 41.6591 121.567 42.1226 121.103L46.417 116.809L50.2612 122.575V126.77C50.2612 127.426 50.5216 128.054 50.9852 128.518C51.4487 128.981 52.0773 129.242 52.7328 129.242C53.3883 129.242 54.017 128.981 54.4805 128.518C54.944 128.054 55.2044 127.426 55.2044 126.77V121.827C55.2044 121.339 55.0599 120.862 54.7892 120.456L49.9813 113.244L52.009 111.217C52.2385 110.987 52.4205 110.715 52.5447 110.415C52.6689 110.115 52.7328 109.794 52.7328 109.469V102.054H47.7897Z" fill="#97661D"/>
<path d="M124.409 102.054V108.445L115.247 117.608C114.783 118.071 114.523 118.7 114.523 119.355C114.523 120.011 114.783 120.64 115.247 121.103C115.71 121.567 116.339 121.827 116.994 121.827C117.65 121.827 118.278 121.567 118.742 121.103L123.036 116.809L126.881 122.575V126.77C126.881 127.426 127.141 128.054 127.604 128.518C128.068 128.981 128.697 129.242 129.352 129.242C130.008 129.242 130.636 128.981 131.1 128.518C131.563 128.054 131.824 127.426 131.824 126.77V121.827C131.824 121.339 131.679 120.862 131.409 120.456L126.601 113.244L128.628 111.217C128.858 110.987 129.04 110.715 129.164 110.415C129.288 110.115 129.352 109.794 129.352 109.469V102.054H124.409Z" fill="#97661D"/>
<path d="M15.6591 102.054V111.192L11.1312 117.984C10.8604 118.39 10.7159 118.867 10.7159 119.355V124.298C10.7159 124.954 10.9763 125.583 11.4398 126.046C11.9034 126.51 12.532 126.77 13.1875 126.77C13.843 126.77 14.4717 126.51 14.9352 126.046C15.3987 125.583 15.6591 124.954 15.6591 124.298V120.104L18.5147 115.82L23.0739 120.379V126.77C23.0739 127.426 23.3343 128.054 23.7978 128.518C24.2613 128.981 24.8899 129.242 25.5454 129.242C26.201 129.242 26.8296 128.981 27.2931 128.518C27.7566 128.054 28.017 127.426 28.017 126.77V119.355C28.017 119.031 27.9531 118.709 27.8289 118.409C27.7047 118.11 27.5227 117.837 27.2932 117.608L20.6023 110.917V102.054H15.6591Z" fill="#97661D"/>
<path d="M72.5056 102.054V108.146L66.1913 112.356C65.8528 112.581 65.5752 112.887 65.3833 113.246C65.1913 113.605 65.0908 114.005 65.0908 114.412V124.298C65.0908 124.954 65.3512 125.583 65.8147 126.046C66.2783 126.51 66.9069 126.77 67.5624 126.77C68.2179 126.77 68.8466 126.51 69.3101 126.046C69.7736 125.583 70.034 124.954 70.034 124.298V119.355L74.9772 123.063V126.77C74.9772 127.426 75.2376 128.054 75.7011 128.518C76.1646 128.981 76.7933 129.242 77.4488 129.242C78.1043 129.242 78.7329 128.981 79.1964 128.518C79.66 128.054 79.9204 127.426 79.9204 126.77V121.827C79.9204 121.443 79.831 121.065 79.6594 120.722C79.4878 120.378 79.2387 120.08 78.9317 119.85L71.8398 114.531L76.3483 111.525C76.6868 111.3 76.9644 110.994 77.1563 110.635C77.3483 110.276 77.4488 109.876 77.4488 109.469V102.054H72.5056Z" fill="#97661D"/>
<path d="M92.2784 102.054V110.917L88.059 115.136C87.5955 115.6 87.3351 116.228 87.3351 116.884C87.3351 117.539 87.5955 118.168 88.059 118.631C88.5226 119.095 89.1512 119.355 89.8068 119.355C90.4623 119.355 91.091 119.095 91.5545 118.631L94.7499 115.436L99.6931 120.379V126.77C99.6931 127.426 99.9535 128.054 100.417 128.518C100.881 128.981 101.509 129.242 102.165 129.242C102.82 129.242 103.449 128.981 103.912 128.518C104.376 128.054 104.636 127.426 104.636 126.77V119.355C104.636 119.031 104.572 118.709 104.448 118.409C104.324 118.11 104.142 117.837 103.912 117.608L97.2215 110.917V102.054H92.2784Z" fill="#97661D"/>
</svg>
