<svg width="465" height="465" viewBox="0 0 465 465" fill="none" xmlns="http://www.w3.org/2000/svg">
<g clip-path="url(#clip0)">
<path d="M232 464.024C360.13 464.024 464 360.154 464 232.024C464 103.894 360.13 0.0239258 232 0.0239258C103.87 0.0239258 0 103.894 0 232.024C0 360.154 103.87 464.024 232 464.024Z" fill="#4398D1"/>
<path d="M362.568 40.2559C330.68 247.568 185.12 354.272 78.128 405.624C173.944 490.693 320.579 481.981 405.648 386.165C490.717 290.349 482.005 143.714 386.189 58.6449C378.719 52.0129 370.829 45.8709 362.568 40.2559Z" fill="#3E8CC7"/>
<path d="M304 184.024V240.024H352V328.024H392L416 280.024V232.024L432 192.024H392V152.024H336L304 184.024Z" fill="#88B337"/>
<path d="M184 248.024H272V320.024L248 368.024H216V320.024H184V248.024Z" fill="#88B337"/>
<path d="M128 216.024L184 248.024V176.024H256V136.024L208 72.0239H152V14.1919C74.365 42.7959 17.803 110.532 3.504 192.024H128V216.024Z" fill="#88B337"/>
<path d="M352 112.024H430.584C400.281 61.983 352.223 25.209 296 9.04004V56.024L352 112.024Z" fill="#88B337"/>
<path d="M104 327.6V32.0239C104 14.3509 89.673 0.0239258 72 0.0239258C54.327 0.0239258 40 14.3509 40 32.0239V327.6C15.595 339.689 0.111 364.525 0 391.76C0.253 430.607 30.962 462.411 69.776 464.024C109.498 465.306 142.738 434.144 144.019 394.422C144.929 366.23 129.284 340.105 104 327.6Z" fill="#DEDEDE"/>
<path d="M72 280.024H104V296.024H72V280.024Z" fill="#BABABA"/>
<path d="M72 232.024H104V248.024H72V232.024Z" fill="#BABABA"/>
<path d="M72 184.024H104V200.024H72V184.024Z" fill="#BABABA"/>
<path d="M72 136.024H104V152.024H72V136.024Z" fill="#BABABA"/>
<path d="M72 88.0239H104V104.024H72V88.0239Z" fill="#BABABA"/>
<path d="M72 40.0239H104V56.0239H72V40.0239Z" fill="#BABABA"/>
<path d="M72 424.024C89.6731 424.024 104 409.697 104 392.024C104 374.351 89.6731 360.024 72 360.024C54.3269 360.024 40 374.351 40 392.024C40 409.697 54.3269 424.024 72 424.024Z" fill="#DE4C3C"/>
<path d="M64 120.024H80V384.024H64V120.024Z" fill="#DE4C3C"/>
<path d="M128 192.024H104V327.6C139.588 345.22 154.155 388.354 136.534 423.943C133.898 429.267 130.612 434.244 126.752 438.76C133.868 442.386 141.166 445.643 148.616 448.52C179.804 423.923 185.148 378.701 160.552 347.512C153.946 339.136 145.56 332.334 136 327.599C136 327.599 135.88 278.911 135.664 220.399L128 216.024V192.024Z" fill="#3E8CC7"/>
<path d="M132.048 22.744C128.107 24.627 124.224 26.613 120.4 28.704C119.08 29.432 117.776 30.192 116.464 30.944C113.035 32.912 109.659 34.971 106.336 37.12L104 38.656V192.024H128V216.024L135.664 220.408C135.344 133.208 134.816 24.2 134.144 21.728C133.44 22.056 132.752 22.424 132.048 22.744Z" fill="#80AB30"/>
</g>
<defs>
<clipPath id="clip0">
<rect width="464.161" height="464.161" fill="white"/>
</clipPath>
</defs>
</svg>
