<svg width="166" height="166" viewBox="0 0 166 166" fill="none" xmlns="http://www.w3.org/2000/svg">
<path d="M149.143 21.609L131.255 16.0853C113.093 10.452 93.5021 11.6114 76.1314 19.3479L70.4933 21.8379C52.9514 29.6444 33.1582 30.7546 14.8541 24.9575L14.3104 26.5031V160.648C14.1538 163.434 16.2758 165.825 19.0615 166H146.939C149.724 165.825 151.847 163.434 151.69 160.648V23.7842L151.89 22.1527C150.958 22.0684 150.037 21.8862 149.143 21.609Z" fill="#CB8252"/>
<path d="M151.69 88.724V121.695H151.003C151.003 121.695 141.043 111.22 110.019 102.777C79.1368 94.391 67.4024 109.732 41.5864 105.152C15.799 100.545 14.4539 91.5862 14.4539 91.5862H14.3109V58.6147H14.4539C14.4539 58.6147 15.799 67.5729 41.5864 72.1522C67.4024 76.76 79.1368 61.4196 110.019 69.8052C141.043 78.2196 151.003 88.7233 151.003 88.7233H151.69V88.724Z" fill="#805333"/>
<path d="M151.69 152.004V160.648C151.846 163.434 149.724 165.825 146.939 166H19.0615C16.2761 165.825 14.1538 163.434 14.3104 160.648V121.895H14.4533C14.4533 121.895 15.7985 130.853 41.5859 135.461C67.4018 140.041 79.1363 124.7 110.018 133.086C141.043 141.529 151.003 152.004 151.003 152.004H151.69V152.004Z" fill="#805333"/>
<path d="M166 23.4981V23.9274C165.948 27.5168 164.39 30.9195 161.707 33.3038C159.023 35.6881 155.461 36.8345 151.89 36.4633C150.958 36.379 150.037 36.1965 149.143 35.9196L131.255 30.3959C113.093 24.7626 93.5021 25.922 76.1314 33.6585L70.4933 36.1485C52.9521 43.955 33.1585 45.0648 14.8547 39.2681C12.4639 38.5231 10.114 37.6538 7.814 36.6637C3.12385 34.7119 0.0496055 30.1517 0 25.0722V25.0148C0.10991 20.9433 2.12817 17.1609 5.44882 14.8026C8.76947 12.4442 13.006 11.7851 16.8863 13.0226C34.6373 18.1203 53.6164 16.803 70.4929 9.30188L76.1311 6.78334C93.5018 -0.952838 113.092 -2.11257 131.254 3.52073L156.984 11.5059C162.302 13.0826 165.963 17.9517 166 23.4981Z" fill="#46B29D"/>
</svg>
