<svg width="128" height="158" viewBox="0 0 128 158" fill="none" xmlns="http://www.w3.org/2000/svg">
<path d="M6.53833 6.3584H120.985V151.642H6.53833V6.3584Z" fill="#525E77"/>
<path d="M19.2546 116.672V6.3584H6.53833V151.642H120.985V132.568H35.1499C26.371 132.568 19.2546 125.451 19.2546 116.672Z" fill="#3B4456"/>
<path d="M120.985 12.7162H6.53832C3.02683 12.7162 0.180054 9.86945 0.180054 6.35796C0.180054 2.84678 3.02683 0 6.53832 0H120.985C124.496 0 127.343 2.84678 127.343 6.35827C127.343 9.86975 124.496 12.7162 120.985 12.7162Z" fill="#C1F1FF"/>
<path d="M26.0895 6.35827C26.0895 2.84678 28.936 0 32.4478 0H7.01506C3.50358 0 0.656799 2.84678 0.656799 6.35827C0.656799 9.86975 3.50358 12.7165 7.01506 12.7165H32.4475C28.936 12.7162 26.0895 9.86975 26.0895 6.35827Z" fill="#A4E6FF"/>
<path d="M121.462 45.2488H7.01506C3.50358 45.2488 0.656799 42.402 0.656799 38.8905C0.656799 35.379 3.50358 32.5322 7.01506 32.5322H121.462C124.973 32.5322 127.82 35.379 127.82 38.8905C127.82 42.4023 124.973 45.2488 121.462 45.2488Z" fill="#C1F1FF"/>
<path d="M26.0895 38.8905C26.0895 35.379 28.9363 32.5322 32.4478 32.5322H7.01506C3.50358 32.5322 0.656799 35.379 0.656799 38.8905C0.656799 42.402 3.50358 45.2488 7.01506 45.2488H32.4475C28.936 45.2488 26.0895 42.4023 26.0895 38.8905Z" fill="#A4E6FF"/>
<path d="M121.462 125.468H7.01506C3.50358 125.468 0.656799 122.621 0.656799 119.109C0.656799 115.598 3.50358 112.751 7.01506 112.751H121.462C124.973 112.751 127.82 115.598 127.82 119.109C127.82 122.621 124.973 125.468 121.462 125.468Z" fill="#C1F1FF"/>
<path d="M26.0895 119.109C26.0895 115.598 28.9363 112.751 32.4478 112.751H7.01506C3.50358 112.751 0.656799 115.598 0.656799 119.109C0.656799 122.621 3.50358 125.468 7.01506 125.468H32.4475C28.936 125.467 26.0895 122.621 26.0895 119.109Z" fill="#A4E6FF"/>
<path d="M121.462 158H7.01506C3.50358 158 0.656799 155.153 0.656799 151.642C0.656799 148.13 3.50358 145.284 7.01506 145.284H121.462C124.973 145.284 127.82 148.13 127.82 151.642C127.82 155.153 124.973 158 121.462 158Z" fill="#C1F1FF"/>
<path d="M26.0895 151.642C26.0895 148.13 28.9363 145.284 32.4478 145.284H7.01506C3.50358 145.284 0.656799 148.13 0.656799 151.642C0.656799 155.153 3.50358 158 7.01506 158H32.4475C28.936 158 26.0895 155.153 26.0895 151.642Z" fill="#A4E6FF"/>
<path d="M61.3856 61.6985C57.801 65.7497 51.3896 74.2919 51.0561 83.8744C50.8012 91.1905 56.5632 97.4377 63.8834 97.3689C70.8517 97.3034 76.4805 91.6343 76.4805 84.6505C76.4805 74.7591 69.8238 65.8661 66.142 61.7038C64.8786 60.2753 62.6493 60.2703 61.3856 61.6985Z" fill="#E7FAFF"/>
</svg>
