<svg width="184" height="184" viewBox="0 0 184 184" fill="none" xmlns="http://www.w3.org/2000/svg">
<g clip-path="url(#clip0)">
<path d="M153.333 165.6C153.907 162.127 156.868 159.552 160.387 159.467H174.8C178.187 159.467 180.933 162.213 180.933 165.6V177.867C180.933 179.56 179.56 180.933 177.867 180.933H6.13332C4.43964 180.933 3.06665 179.56 3.06665 177.867V165.6C3.06665 162.213 5.81264 159.467 9.19998 159.467H24.5333C27.9207 159.467 30.6666 162.213 30.6666 165.6C30.6666 162.213 33.4126 159.467 36.8 159.467H55.2C58.5873 159.467 61.3333 162.213 61.3333 165.6C61.3333 162.213 64.0793 159.467 67.4667 159.467H85.8666C89.254 159.467 92 162.213 92 165.6C92 162.213 94.746 159.467 98.1333 159.467H117.331C118.906 159.416 120.421 160.077 121.455 161.266C122.49 162.455 122.935 164.047 122.667 165.6C123.24 162.127 126.201 159.552 129.72 159.467H148.12C149.674 159.453 151.154 160.13 152.161 161.314C153.168 162.498 153.597 164.068 153.333 165.6Z" fill="#A0522D"/>
<path d="M174.8 159.467H165.6C168.987 159.467 171.733 162.213 171.733 165.6V177.867C171.733 179.56 170.36 180.933 168.667 180.933H177.867C179.56 180.933 180.933 179.56 180.933 177.867V165.6C180.933 162.213 178.187 159.467 174.8 159.467Z" fill="#783E22"/>
<path d="M179.155 74.9493L122.667 131.345C119.975 134.096 116.149 135.425 112.332 134.933L52.1333 126.132V113.191L85.376 109.94C86.5941 109.887 87.6653 109.118 88.1043 107.98C88.5433 106.843 88.2668 105.553 87.4 104.696L57.7146 74.9493C55.3366 72.5571 55.3366 68.6935 57.7146 66.3013L81.5426 42.4426L88.044 49.0666C89.5943 50.6169 91.8539 51.2224 93.9716 50.6549C96.0894 50.0875 97.7435 48.4333 98.3109 46.3156C98.8784 44.1978 98.2729 41.9382 96.7226 40.3879L90.2213 33.7333L114.08 9.90527C115.23 8.75357 116.791 8.10645 118.419 8.10645C120.047 8.10645 121.608 8.75357 122.759 9.90527L126.837 13.9839L167.072 54.2186L167.961 55.1079L176.211 63.3266L177.529 64.6453L179.155 66.3013C181.533 68.6935 181.533 72.5571 179.155 74.9493Z" fill="#009688"/>
<path d="M179.155 66.3013L177.529 64.6453L176.211 63.3266L167.961 55.1999L167.072 54.3106L126.837 13.9839L122.667 9.90527C121.516 8.75357 119.955 8.10645 118.327 8.10645C116.699 8.10645 115.138 8.75357 113.988 9.90527L113.712 10.1813L117.545 13.9839L157.872 54.2186L158.761 55.1079L167.011 63.3266L168.329 64.6453L169.955 66.3013C172.333 68.6935 172.333 72.5571 169.955 74.9493L113.467 131.345C112.143 132.724 110.515 133.774 108.713 134.412L112.271 134.933C116.108 135.445 119.962 134.115 122.667 131.345L179.093 74.9493C181.488 72.574 181.516 68.7103 179.155 66.3013Z" fill="#00695C"/>
<path d="M52.1333 104.267V134.933H46C42.6126 134.933 39.8666 132.187 39.8666 128.8V110.4C39.8666 107.013 42.6126 104.267 46 104.267H52.1333Z" fill="#F44335"/>
<path d="M46 104.267C44.92 104.278 43.8621 104.574 42.9333 105.125V134.075C43.8621 134.626 44.92 134.922 46 134.933H52.1333V104.267H46Z" fill="#C81E1E"/>
<path d="M96.7227 49.0666C95.5723 50.2183 94.0112 50.8654 92.3833 50.8654C90.7555 50.8654 89.1944 50.2183 88.044 49.0666L81.5427 42.5653L55.5373 16.4066C54.3483 15.2105 54.3483 13.2787 55.5373 12.0826L59.8613 7.72792C60.4372 7.14736 61.221 6.8208 62.0387 6.8208C62.8564 6.8208 63.6402 7.14736 64.216 7.72792L90.2213 33.7333L96.7227 40.2346C97.9221 41.3906 98.5996 42.9848 98.5996 44.6506C98.5996 46.3164 97.9221 47.9106 96.7227 49.0666Z" fill="#00BCD4"/>
<path d="M180.596 54.2798C180.075 57.8638 179.042 61.3545 177.529 64.6452L176.211 63.3265L167.961 55.1998C168.185 54.3521 168.359 53.4919 168.483 52.6238C170.292 39.8665 158.976 21.4665 148.856 16.4985C144.317 14.2292 142.723 15.8545 142.017 16.4985C139.653 18.6345 138.085 21.511 137.571 24.6558L127.972 15.1185C129.358 12.4316 131.17 9.98736 133.339 7.88117C138.797 2.42251 146.464 1.56384 154.376 5.51984C168.667 12.7265 183.295 35.6038 180.596 54.2798Z" fill="#00695C"/>
<path d="M118.404 76.7584C121.791 76.7584 124.537 74.0124 124.537 70.625C124.537 67.2377 121.791 64.4917 118.404 64.4917C115.017 64.4917 112.271 67.2377 112.271 70.625C112.271 74.0124 115.017 76.7584 118.404 76.7584Z" fill="#EF314C"/>
<path d="M124.323 72.189L145.053 77.7703C143.814 82.4186 141.358 86.6527 137.939 90.037C134.55 93.4567 130.318 95.9215 125.672 97.1823L119.999 76.6663" fill="#EF314C"/>
<path d="M116.84 64.7063L111.289 43.9756C120.825 41.3965 131.011 44.1098 138 51.0903L122.667 66.2703" fill="#EF314C"/>
<path d="M112.485 69.0302L91.7547 63.4795C89.207 73.0012 91.9305 83.1589 98.9 90.1288L114.233 74.9488" fill="#EF314C"/>
<path d="M30.6667 138C30.6667 143.081 26.5477 147.2 21.4667 147.2C16.3856 147.2 12.2667 143.081 12.2667 138C12.2667 132.909 21.4667 122.667 21.4667 122.667C21.4667 122.667 30.6667 132.909 30.6667 138Z" fill="#60A917"/>
<path d="M21.4666 122.667C21.4666 122.667 19.1666 125.243 16.8666 128.432C19.1927 131.175 20.7765 134.47 21.4666 138C21.4469 141.267 19.696 144.278 16.8666 145.912C18.2563 146.747 19.8454 147.192 21.4666 147.2C26.5477 147.2 30.6666 143.081 30.6666 138C30.6666 132.909 21.4666 122.667 21.4666 122.667Z" fill="#549414"/>
<path d="M174.8 156.4H160.387C158.031 156.416 155.754 157.251 153.947 158.761C152.347 157.228 150.212 156.381 147.997 156.4H129.597C127.242 156.416 124.965 157.251 123.157 158.761C121.589 157.258 119.503 156.413 117.331 156.4H98.1333C95.8679 156.405 93.684 157.246 92 158.761C90.316 157.246 88.1321 156.405 85.8667 156.4H67.4667C65.2012 156.405 63.0173 157.246 61.3333 158.761C59.6494 157.246 57.4654 156.405 55.2 156.4H36.8C34.5346 156.405 32.3506 157.246 30.6667 158.761C28.9827 157.246 26.7988 156.405 24.5333 156.4H9.2C4.11898 156.4 0 160.519 0 165.6V177.866C0 181.254 2.74599 184 6.13333 184H177.867C181.254 184 184 181.254 184 177.866V165.6C184 160.519 179.881 156.4 174.8 156.4ZM177.867 177.866H6.13333V165.6C6.13333 163.906 7.50633 162.533 9.2 162.533H24.5333C26.227 162.533 27.6 163.906 27.6 165.6C27.6 167.293 28.973 168.666 30.6667 168.666C32.3603 168.666 33.7333 167.293 33.7333 165.6C33.7333 163.906 35.1063 162.533 36.8 162.533H55.2C56.8937 162.533 58.2667 163.906 58.2667 165.6C58.2667 167.293 59.6397 168.666 61.3333 168.666C63.027 168.666 64.4 167.293 64.4 165.6C64.4 163.906 65.773 162.533 67.4667 162.533H85.8667C87.5603 162.533 88.9333 163.906 88.9333 165.6C88.9333 167.293 90.3063 168.666 92 168.666C93.6937 168.666 95.0667 167.293 95.0667 165.6C95.0667 163.906 96.4397 162.533 98.1333 162.533H117.331C118.01 162.517 118.665 162.784 119.14 163.269C119.572 163.802 119.751 164.495 119.631 165.17C119.394 166.864 120.574 168.429 122.268 168.666C123.962 168.903 125.527 167.723 125.764 166.029C126.136 164.101 127.76 162.665 129.72 162.533H148.12C148.799 162.517 149.454 162.784 149.929 163.269C150.361 163.802 150.54 164.495 150.42 165.17C150.183 166.864 151.364 168.429 153.057 168.666C154.751 168.903 156.316 167.723 156.553 166.029C156.903 164.136 158.47 162.707 160.387 162.533H174.8C176.494 162.533 177.867 163.906 177.867 165.6V177.866Z" fill="black"/>
<path d="M181.148 63.9397C182.329 60.9796 183.163 57.8922 183.632 54.7397C186.545 34.5304 171.365 10.6411 155.756 2.82107C146.709 -1.7176 137.509 -0.6136 131.223 5.88773C129.814 7.26552 128.541 8.77508 127.42 10.3957L124.967 7.91173C123.24 6.17948 120.896 5.20581 118.45 5.20581C116.004 5.20581 113.66 6.17948 111.933 7.91173L90.2213 29.4091L66.3627 5.58107C65.2122 4.42937 63.6512 3.78224 62.0233 3.78224C60.3955 3.78224 58.8344 4.42937 57.684 5.58107L53.36 9.90507C52.2083 11.0555 51.5612 12.6166 51.5612 14.2444C51.5612 15.8722 52.2083 17.4333 53.36 18.5837L77.2187 42.4424L55.568 64.1237C53.8533 65.8198 52.8731 68.1215 52.8387 70.5331C52.8408 72.9722 53.8115 75.3107 55.5373 77.0344L85.0693 106.781L55.2 109.848V104.266C55.2 102.573 53.827 101.2 52.1333 101.2H46C40.919 101.2 36.8 105.319 36.8 110.4V128.8C36.8 133.881 40.919 138 46 138H52.1333C53.827 138 55.2 136.627 55.2 134.933V129.658L111.903 138C112.617 138.045 113.334 138.045 114.049 138C118.119 138.007 122.024 136.396 124.905 133.522L181.301 77.1264C184.868 73.5381 184.868 67.7428 181.301 64.1544L181.148 63.9397ZM135.516 10.0584C140.024 5.51973 146.249 4.87573 152.996 8.24907C166.152 14.8731 180.044 36.6771 177.529 53.8504C177.273 55.6508 176.863 57.4258 176.303 59.1557L171.273 54.0957C171.273 53.7277 171.273 53.3597 171.488 52.9611C173.512 38.8237 161.276 19.2277 150.205 13.7691C145.82 11.5611 142.293 11.8064 139.84 14.3824C138.408 15.7513 137.198 17.3341 136.252 19.0744L131.867 14.6584C132.9 12.9886 134.125 11.4449 135.516 10.0584ZM141.067 23.7357C141.67 21.8281 142.721 20.093 144.133 18.6757C144.593 18.2157 145.697 18.3997 147.384 19.2584C155.48 23.2757 164.741 37.3211 165.447 48.3611L141.067 23.7357ZM62.0387 9.90507L88.044 35.9104L94.5453 42.4117C95.7343 43.6079 95.7343 45.5396 94.5453 46.7357C93.9695 47.3163 93.1857 47.6428 92.368 47.6428C91.5503 47.6428 90.7665 47.3163 90.1907 46.7357L57.684 14.2291L62.0387 9.90507ZM49.0667 131.866H46C44.3063 131.866 42.9333 130.493 42.9333 128.8V110.4C42.9333 108.706 44.3063 107.333 46 107.333H49.0667V131.866ZM176.977 72.7717L120.551 129.168C118.527 131.242 115.626 132.213 112.761 131.774L55.2 123.464V115.981L85.5293 112.914C87.9656 112.809 90.1079 111.27 90.9859 108.995C91.864 106.72 91.311 104.141 89.5773 102.426L59.8613 72.6797C59.2948 72.1085 58.9754 71.3376 58.972 70.5331C58.9835 69.7242 59.3142 68.9526 59.892 68.3864L81.5427 46.6744L85.8667 51.0904C88.1602 53.5518 91.6143 54.5649 94.8739 53.7325C98.1336 52.9 100.679 50.3547 101.511 47.095C102.344 43.8354 101.331 40.3812 98.8693 38.0877L94.576 33.7331L116.257 12.0517C117.453 10.8627 119.385 10.8627 120.581 12.0517L164.895 56.3957L177.008 68.4784C177.542 69.0315 177.848 69.7648 177.867 70.5331C177.888 71.3694 177.567 72.1781 176.977 72.7717Z" fill="black"/>
<path d="M145.851 74.7957L127.451 69.889C127.368 68.7714 127.077 67.6792 126.592 66.669L140.024 53.2677C141.213 52.0716 141.213 50.1398 140.024 48.9437C132.278 41.1937 120.985 38.1659 110.4 41.001C109.609 41.2094 108.934 41.725 108.525 42.4334C108.117 43.1417 108.008 43.984 108.223 44.773L113.129 63.173C112.655 63.4854 112.213 63.8451 111.811 64.2463C111.42 64.6474 111.061 65.078 110.737 65.5343L92.3373 60.6583C90.7127 60.2277 89.0441 61.1851 88.596 62.805C85.7531 73.384 88.769 84.6762 96.508 92.429C97.0838 93.0096 97.8676 93.3361 98.6853 93.3361C99.503 93.3361 100.287 93.0096 100.863 92.429L114.264 79.0277C115.228 79.4848 116.267 79.7653 117.331 79.8557L122.667 98.133C123.037 99.5106 124.308 100.451 125.733 100.402H126.531C137.119 97.5608 145.385 89.2829 148.212 78.6903C148.462 77.8588 148.348 76.9604 147.897 76.2179C147.447 75.4755 146.703 74.9586 145.851 74.7957ZM121.317 70.625C121.323 72.0184 120.389 73.2405 119.043 73.6003C117.697 73.9602 116.277 73.3673 115.587 72.157C114.897 70.9466 115.109 69.423 116.104 68.4477C117.3 67.2587 119.232 67.2587 120.428 68.4477C121.037 68.9784 121.411 69.7277 121.471 70.533L121.317 70.625ZM133.308 51.2437L122.36 62.345C121.395 61.8827 120.358 61.5921 119.293 61.4863L115.245 46.337C121.729 45.4793 128.286 47.2456 133.461 51.2437H133.308ZM99.0227 85.6517C94.9764 80.4292 93.2074 73.7955 94.116 67.2517L109.296 71.3303C109.392 72.3928 109.672 73.4305 110.124 74.397L99.0227 85.6517ZM135.823 87.9823C133.5 90.2822 130.75 92.1054 127.727 93.349L123.617 78.1997C124.085 77.8776 124.526 77.5187 124.936 77.1263C125.326 76.7221 125.675 76.2804 125.979 75.8077L141.067 79.8863C139.864 82.916 138.059 85.6702 135.761 87.9823H135.823Z" fill="black"/>
<path d="M19.1973 120.612C17.5107 122.483 9.20001 132.051 9.20001 138C9.20001 144.775 14.692 150.267 21.4667 150.267C28.2414 150.267 33.7333 144.775 33.7333 138C33.7333 132.051 25.4227 122.483 23.736 120.612C23.1548 119.972 22.3308 119.608 21.4667 119.608C20.6026 119.608 19.7786 119.972 19.1973 120.612ZM21.4667 144.133C18.0793 144.133 15.3333 141.387 15.3333 138C15.3333 136.037 18.216 131.468 21.4667 127.42C24.7173 131.499 27.6 136.099 27.6 138C27.6 141.387 24.854 144.133 21.4667 144.133Z" fill="black"/>
</g>
<defs>
<clipPath id="clip0">
<rect width="184" height="184" fill="white"/>
</clipPath>
</defs>
</svg>
