<svg width="149" height="149" viewBox="0 0 149 149" fill="none" xmlns="http://www.w3.org/2000/svg">
<path d="M116.495 29.4624C105.475 29.4624 96.5103 38.4274 96.5103 49.4467V75.9554L82.9624 90.7209L89.4 96.6274L96.5103 88.8779V138.584H105.247V109.661L110.983 115.046L116.962 108.677L105.247 97.6779V49.447C105.247 43.2449 110.292 38.199 116.494 38.199C122.697 38.199 127.742 43.2449 127.742 49.447V60.6738H136.479V49.447C136.479 38.4274 127.514 29.4624 116.495 29.4624Z" fill="#B38A65"/>
<path d="M149 74.8357C149 87.5001 134.837 97.1071 134.235 97.5075L132.111 98.9277L129.987 97.5075C129.383 97.1071 115.222 87.5001 115.222 74.8357C115.222 62.1713 129.383 52.5666 129.987 52.1638L132.111 50.7437L134.235 52.1638C134.837 52.5669 149 62.1718 149 74.8357Z" fill="#C06100"/>
<path d="M149 74.8359C149 87.5003 134.836 97.1073 134.235 97.5077L132.111 98.9279V50.7441L134.235 52.1643C134.836 52.5671 149 62.172 149 74.8359Z" fill="#9A4C00"/>
<path d="M76.7903 82.5554L60.57 64.8776V33.2396C60.57 20.6546 50.3312 10.4155 37.7459 10.4155C25.1607 10.4155 14.9219 20.6543 14.9219 33.2396V46.5079H23.6585V33.2396C23.6585 25.4718 29.9779 19.1521 37.7459 19.1521C45.5137 19.1521 51.8334 25.4715 51.8334 33.2396V90.5845L37.7369 103.818L43.7167 110.188L51.8337 102.568V138.585H60.5703V77.8002L70.3534 88.4624L76.7903 82.5554Z" fill="#C8AD92"/>
<path d="M38.5808 63.2446C38.5808 77.7095 22.4035 88.6829 21.7162 89.14L19.2903 90.7622L16.8644 89.14C16.1744 88.6829 0 77.7095 0 63.2446C0 48.7797 16.1744 37.8093 16.8646 37.3492L19.2906 35.7271L21.7165 37.3492C22.4035 37.8096 38.5808 48.7797 38.5808 63.2446Z" fill="#C06100"/>
<path d="M38.5808 63.2443C38.5808 77.7093 22.4036 88.6826 21.7162 89.1398L19.2903 90.7619V35.7271L21.7162 37.3492C22.4036 37.8093 38.5808 48.7794 38.5808 63.2443Z" fill="#9A4C00"/>
</svg>
