<svg width="512" height="512" viewBox="0 0 512 512" fill="none" xmlns="http://www.w3.org/2000/svg">
<path d="M176 232H240V264H176V232Z" fill="#EFDD9B"/>
<path d="M248 136V168L304 184V264H432V184L488 168V136H248Z" fill="#C5D5E1"/>
<path d="M488 264L468.8 336L462.25 360.58C453.638 355.724 443.672 353.82 433.876 355.16C424.08 356.5 414.992 361.01 408 368C399.512 376.484 388.001 381.25 376 381.25C363.999 381.25 352.488 376.484 344 368C335.512 359.516 324.001 354.75 312 354.75C299.999 354.75 288.488 359.516 280 368C271.512 376.484 260.001 381.25 248 381.25C235.999 381.25 224.488 376.484 216 368C207.512 359.516 196.001 354.75 184 354.75C171.999 354.75 160.488 359.516 152 368C147.802 372.208 142.814 375.545 137.323 377.819C131.831 380.093 125.944 381.259 120 381.25H119.98C114.04 381.254 108.157 380.086 102.669 377.812C97.1816 375.539 92.1966 372.204 88 368C84.593 364.589 80.6636 361.743 76.36 359.57C74.88 351.65 73.11 343.793 71.05 336C63.0704 305.722 50.8422 276.728 34.73 249.88L24 232H184L216 264H488Z" fill="#396796"/>
<path d="M468.8 336L462.25 360.58C453.638 355.724 443.672 353.82 433.876 355.16C424.08 356.5 414.992 361.01 408 368C399.512 376.484 388.001 381.25 376 381.25C363.999 381.25 352.488 376.484 344 368C335.512 359.516 324.001 354.75 312 354.75C299.999 354.75 288.488 359.516 280 368C271.512 376.484 260.001 381.25 248 381.25C235.999 381.25 224.488 376.484 216 368C207.512 359.516 196.001 354.75 184 354.75C171.999 354.75 160.488 359.516 152 368C147.802 372.208 142.814 375.545 137.323 377.819C131.831 380.093 125.944 381.259 120 381.25H119.98C114.04 381.254 108.157 380.086 102.669 377.812C97.1816 375.539 92.1966 372.204 88 368C84.593 364.589 80.6636 361.743 76.36 359.57C74.88 351.65 73.11 343.793 71.05 336H468.8Z" fill="#D2393B"/>
<path d="M488 264L468.8 336L462.25 360.58C453.638 355.724 443.672 353.82 433.876 355.16C424.08 356.5 414.992 361.01 408 368C399.512 376.484 388.001 381.25 376 381.25C363.999 381.25 352.488 376.484 344 368C335.512 359.516 324.001 354.75 312 354.75C299.999 354.75 288.488 359.516 280 368C271.512 376.484 260.001 381.25 248 381.25C235.999 381.25 224.488 376.484 216 368C207.512 359.516 196.001 354.75 184 354.75C171.999 354.75 160.488 359.516 152 368C147.802 372.208 142.814 375.545 137.323 377.819C131.831 380.093 125.944 381.259 120 381.25H119.98C119.852 366.093 118.585 350.967 116.19 336C111.303 305.255 101.728 275.442 87.8001 247.6L80 232H184L216 264H488Z" fill="#2D80B4"/>
<path d="M468.8 336L462.25 360.58C453.638 355.724 443.672 353.82 433.876 355.16C424.08 356.5 414.992 361.01 408 368C399.512 376.484 388.001 381.25 376 381.25C363.999 381.25 352.488 376.484 344 368C335.512 359.516 324.001 354.75 312 354.75C299.999 354.75 288.488 359.516 280 368C271.512 376.484 260.001 381.25 248 381.25C235.999 381.25 224.488 376.484 216 368C207.512 359.516 196.001 354.75 184 354.75C171.999 354.75 160.488 359.516 152 368C147.802 372.208 142.814 375.545 137.323 377.819C131.831 380.093 125.944 381.259 120 381.25H119.98C119.852 366.093 118.585 350.967 116.19 336H468.8Z" fill="#E54042"/>
<path d="M240 232H304V264H240V232Z" fill="#E54042"/>
<path d="M96 200H144V232H96V200Z" fill="#EFDD9B"/>
<path d="M144 200H192V232H144V200Z" fill="#E54042"/>
<path d="M192 200H240V232H192V200Z" fill="#8FC837"/>
<path d="M240 200H304V232H240V200Z" fill="#EFDD9B"/>
<path d="M304 232H368V264H304V232Z" fill="#EFDD9B"/>
<path d="M304 200H368V232H304V200Z" fill="#8FC837"/>
<path d="M392 88H344C348.738 95.1073 351.267 103.458 351.267 112C351.267 120.542 348.738 128.893 344 136H392C387.262 128.893 384.733 120.542 384.733 112C384.733 103.458 387.262 95.1073 392 88Z" fill="#A7B3BD"/>
<path d="M400 56H336C327.163 56 320 63.1634 320 72C320 80.8366 327.163 88 336 88H400C408.837 88 416 80.8366 416 72C416 63.1634 408.837 56 400 56Z" fill="#C5D5E1"/>
<path d="M368 24C372.243 24 376.313 25.6857 379.314 28.6863C382.314 31.6869 384 35.7565 384 40V56H352V40C352 35.7565 353.686 31.6869 356.686 28.6863C359.687 25.6857 363.757 24 368 24Z" fill="#A7B3BD"/>
<path d="M136 344V378.34C130.886 380.267 125.465 381.252 120 381.25H119.98C114.521 381.243 109.108 380.254 104 378.33V344C104 339.757 105.686 335.687 108.686 332.686C111.687 329.686 115.757 328 120 328C124.243 328 128.313 329.686 131.314 332.686C134.314 335.687 136 339.757 136 344Z" fill="#C5D5E1"/>
<path d="M336 384V360C336 353.635 338.529 347.53 343.029 343.029C347.53 338.529 353.635 336 360 336C366.365 336 372.47 338.529 376.971 343.029C381.471 347.53 384 353.635 384 360V384C384 390.365 386.529 396.47 391.029 400.971C395.53 405.471 401.635 408 408 408H440C444.243 408 448.313 409.686 451.314 412.686C454.314 415.687 456 419.757 456 424C456 428.243 454.314 432.313 451.314 435.314C448.313 438.314 444.243 440 440 440H396C392.817 440 389.765 441.264 387.515 443.515C385.264 445.765 384 448.817 384 452C384 455.183 385.264 458.235 387.515 460.485C389.765 462.736 392.817 464 396 464H428C431.183 464 434.235 465.264 436.485 467.515C438.736 469.765 440 472.817 440 476C440 479.183 438.736 482.235 436.485 484.485C434.235 486.736 431.183 488 428 488H80C75.7565 488 71.6869 486.314 68.6863 483.314C65.6857 480.313 64 476.243 64 472C64 467.757 65.6857 463.687 68.6863 460.686C71.6869 457.686 75.7565 456 80 456H268C271.183 456 274.235 454.736 276.485 452.485C278.736 450.235 280 447.183 280 444C280 440.817 278.736 437.765 276.485 435.515C274.235 433.264 271.183 432 268 432H252C248.817 432 245.765 430.736 243.515 428.485C241.264 426.235 240 423.183 240 420C240 416.817 241.264 413.765 243.515 411.515C245.765 409.264 248.817 408 252 408H312C318.365 408 324.47 405.471 328.971 400.971C333.471 396.47 336 390.365 336 384Z" fill="#2F4054"/>
<path d="M490.2 175.69C491.871 175.212 493.34 174.203 494.387 172.816C495.433 171.428 495.999 169.738 496 168V136C496 134.949 495.794 133.909 495.392 132.938C494.99 131.967 494.4 131.085 493.657 130.343C492.915 129.6 492.033 129.01 491.062 128.608C490.091 128.206 489.051 128 488 128H396.58C394.041 123.049 392.717 117.564 392.717 112C392.717 106.436 394.041 100.951 396.58 96H400C406.365 96 412.47 93.4714 416.971 88.9706C421.471 84.4697 424 78.3652 424 72C424 65.6348 421.471 59.5303 416.971 55.0294C412.47 50.5286 406.365 48 400 48H392V40C392 33.6348 389.471 27.5303 384.971 23.0294C380.47 18.5286 374.365 16 368 16C361.635 16 355.53 18.5286 351.029 23.0294C346.529 27.5303 344 33.6348 344 40V48H336C329.635 48 323.53 50.5286 319.029 55.0294C314.529 59.5303 312 65.6348 312 72C312 78.3652 314.529 84.4697 319.029 88.9706C323.53 93.4714 329.635 96 336 96H339.42C341.959 100.951 343.283 106.436 343.283 112C343.283 117.564 341.959 123.049 339.42 128H248C246.949 128 245.909 128.206 244.938 128.608C243.967 129.01 243.085 129.6 242.343 130.343C241.6 131.085 241.01 131.967 240.608 132.938C240.206 133.909 240 134.949 240 136V168C240.001 169.738 240.567 171.428 241.613 172.816C242.66 174.203 244.129 175.212 245.8 175.69L296 190.03V192H96C94.9494 192 93.9089 192.206 92.9382 192.608C91.9675 193.01 91.0855 193.6 90.3425 194.343C89.5996 195.085 89.0103 195.967 88.6084 196.938C88.2065 197.909 87.9997 198.949 88 200V224H24C22.5842 224.001 21.194 224.377 19.9711 225.091C18.7482 225.804 17.7365 226.829 17.0391 228.062C16.3417 229.294 15.9836 230.689 16.0014 232.104C16.0191 233.52 16.412 234.906 17.14 236.12L27.87 254C43.5934 280.2 55.5285 308.494 63.32 338.04L78.79 333.96C70.6123 302.953 58.0881 273.258 41.59 245.76L38.13 240H75.05L80.65 251.18C90.6306 271.156 98.3324 292.192 103.61 313.89L119.15 310.11C113.591 287.242 105.477 265.073 94.96 244.02L92.95 240H180.69L210.34 269.66C211.842 271.159 213.878 272.001 216 272H477.59L458.94 341.94L474.4 346.06L495.73 266.06C496.044 264.875 496.082 263.634 495.841 262.433C495.6 261.231 495.086 260.101 494.339 259.129C493.593 258.157 492.633 257.369 491.534 256.827C490.435 256.285 489.226 256.002 488 256H440V190.03L490.2 175.69ZM136 224H104V208H136V224ZM184 224H152V208H184V224ZM232 256H219.31L203.32 240H232V256ZM232 224H200V208H232V224ZM296 256H248V240H296V256ZM296 224H248V208H296V224ZM360 40C360 37.8783 360.843 35.8434 362.343 34.3431C363.843 32.8429 365.878 32 368 32C370.122 32 372.157 32.8429 373.657 34.3431C375.157 35.8434 376 37.8783 376 40V48H360V40ZM336 80C333.878 80 331.843 79.1571 330.343 77.6569C328.843 76.1566 328 74.1217 328 72C328 69.8783 328.843 67.8434 330.343 66.3431C331.843 64.8429 333.878 64 336 64H400C402.122 64 404.157 64.8429 405.657 66.3431C407.157 67.8434 408 69.8783 408 72C408 74.1217 407.157 76.1566 405.657 77.6569C404.157 79.1571 402.122 80 400 80H336ZM379.28 128H356.72C360.15 117.609 360.15 106.391 356.72 96H379.28C375.85 106.391 375.85 117.609 379.28 128ZM360 256H312V240H360V256ZM360 224H312V208H360V224ZM429.8 176.31C428.129 176.788 426.66 177.797 425.613 179.184C424.567 180.572 424.001 182.262 424 184V256H376V200C376 198.949 375.794 197.909 375.392 196.938C374.99 195.967 374.4 195.085 373.657 194.343C372.915 193.6 372.033 193.01 371.062 192.608C370.091 192.206 369.051 192 368 192H312V184C311.999 182.262 311.433 180.572 310.387 179.184C309.34 177.797 307.871 176.788 306.2 176.31L256 161.97V144H480V161.97L429.8 176.31Z" fill="black"/>
<path d="M328 160H344V176H328V160Z" fill="black"/>
<path d="M360 160H376V176H360V160Z" fill="black"/>
<path d="M392 160H408V176H392V160Z" fill="black"/>
<path d="M272 312C276.418 312 280 308.418 280 304C280 299.582 276.418 296 272 296C267.582 296 264 299.582 264 304C264 308.418 267.582 312 272 312Z" fill="black"/>
<path d="M320 312C324.418 312 328 308.418 328 304C328 299.582 324.418 296 320 296C315.582 296 312 299.582 312 304C312 308.418 315.582 312 320 312Z" fill="black"/>
<path d="M368 312C372.418 312 376 308.418 376 304C376 299.582 372.418 296 368 296C363.582 296 360 299.582 360 304C360 308.418 363.582 312 368 312Z" fill="black"/>
<path d="M416 312C420.418 312 424 308.418 424 304C424 299.582 420.418 296 416 296C411.582 296 408 299.582 408 304C408 308.418 411.582 312 416 312Z" fill="black"/>
<path d="M144 352V344C144 337.635 141.471 331.53 136.971 327.029C132.47 322.529 126.365 320 120 320C113.635 320 107.53 322.529 103.029 327.029C98.5286 331.53 96 337.635 96 344V352H112V344C112 341.878 112.843 339.843 114.343 338.343C115.843 336.843 117.878 336 120 336C122.122 336 124.157 336.843 125.657 338.343C127.157 339.843 128 341.878 128 344V352H144Z" fill="black"/>
<path d="M402.343 362.344C399.337 365.345 395.838 367.81 392 369.63V360C392.001 352.412 389.306 345.071 384.395 339.287C379.484 333.503 372.677 329.653 365.19 328.423C357.702 327.193 350.022 328.665 343.519 332.574C337.016 336.484 332.114 342.577 329.688 349.766C320.215 346.436 309.994 345.85 300.202 348.075C290.411 350.3 281.447 355.246 274.343 362.343C267.355 369.327 257.88 373.25 248 373.25C238.12 373.25 228.645 369.327 221.657 362.343C211.668 352.359 198.123 346.75 184 346.75C169.877 346.75 156.332 352.359 146.343 362.343C139.355 369.327 129.88 373.25 120 373.25C110.12 373.25 100.645 369.327 93.6568 362.343C83.668 352.359 70.123 346.75 56 346.75C41.877 346.75 28.3321 352.359 18.3433 362.343L29.6568 373.657C36.6449 366.673 46.1203 362.75 56 362.75C65.8798 362.75 75.3552 366.673 82.3433 373.657C92.3321 383.641 105.877 389.25 120 389.25C134.123 389.25 147.668 383.641 157.657 373.657C164.645 366.673 174.12 362.75 184 362.75C193.88 362.75 203.355 366.673 210.343 373.657C220.332 383.641 233.877 389.25 248 389.25C262.123 389.25 275.668 383.641 285.657 373.657C291.097 368.217 298.089 364.595 305.671 363.29C313.253 361.985 321.054 363.059 328 366.367V384C327.995 388.242 326.308 392.309 323.308 395.308C320.309 398.308 316.242 399.995 312 400H252C246.696 400 241.609 402.107 237.858 405.858C234.107 409.609 232 414.696 232 420C232 425.304 234.107 430.391 237.858 434.142C241.609 437.893 246.696 440 252 440H268C269.061 440 270.078 440.421 270.828 441.172C271.579 441.922 272 442.939 272 444C272 445.061 271.579 446.078 270.828 446.828C270.078 447.579 269.061 448 268 448H80C73.6348 448 67.5303 450.529 63.0295 455.029C58.5286 459.53 56 465.635 56 472C56 478.365 58.5286 484.47 63.0295 488.971C67.5303 493.471 73.6348 496 80 496H428C433.304 496 438.391 493.893 442.142 490.142C445.893 486.391 448 481.304 448 476C448 470.696 445.893 465.609 442.142 461.858C438.391 458.107 433.304 456 428 456H396C394.939 456 393.922 455.579 393.172 454.828C392.421 454.078 392 453.061 392 452C392 450.939 392.421 449.922 393.172 449.172C393.922 448.421 394.939 448 396 448H440C446.365 448 452.47 445.471 456.971 440.971C461.471 436.47 464 430.365 464 424C464 417.635 461.471 411.53 456.971 407.029C452.47 402.529 446.365 400 440 400H408C404.232 399.994 400.587 398.658 397.706 396.229C394.825 393.801 392.892 390.433 392.249 386.72C400.327 384.141 407.668 379.661 413.657 373.657C420.649 366.681 430.123 362.763 440 362.763C449.877 362.763 459.351 366.681 466.343 373.657L477.657 362.343C467.661 352.371 454.119 346.77 440 346.771C425.88 346.771 412.338 352.371 402.343 362.344ZM408 416H440C442.122 416 444.157 416.843 445.657 418.343C447.157 419.843 448 421.878 448 424C448 426.122 447.157 428.157 445.657 429.657C444.157 431.157 442.122 432 440 432H396C390.696 432 385.609 434.107 381.858 437.858C378.107 441.609 376 446.696 376 452C376 457.304 378.107 462.391 381.858 466.142C385.609 469.893 390.696 472 396 472H428C429.061 472 430.078 472.421 430.828 473.172C431.579 473.922 432 474.939 432 476C432 477.061 431.579 478.078 430.828 478.828C430.078 479.579 429.061 480 428 480H80C77.8783 480 75.8435 479.157 74.3432 477.657C72.8429 476.157 72 474.122 72 472C72 469.878 72.8429 467.843 74.3432 466.343C75.8435 464.843 77.8783 464 80 464H268C273.304 464 278.391 461.893 282.142 458.142C285.893 454.391 288 449.304 288 444C288 438.696 285.893 433.609 282.142 429.858C278.391 426.107 273.304 424 268 424H252C250.939 424 249.922 423.579 249.172 422.828C248.421 422.078 248 421.061 248 420C248 418.939 248.421 417.922 249.172 417.172C249.922 416.421 250.939 416 252 416H312C320.484 415.99 328.618 412.616 334.617 406.617C340.616 400.618 343.99 392.484 344 384V360C344 355.757 345.686 351.687 348.686 348.686C351.687 345.686 355.757 344 360 344C364.243 344 368.313 345.686 371.314 348.686C374.314 351.687 376 355.757 376 360V384C376.01 392.484 379.384 400.618 385.383 406.617C391.382 412.616 399.516 415.99 408 416Z" fill="black"/>
</svg>
