<svg width="132" height="132" viewBox="0 0 132 132" fill="none" xmlns="http://www.w3.org/2000/svg">
<path d="M43.9025 82.9151C65.6262 82.9151 83.2367 65.3045 83.2367 43.5808C83.2367 21.8571 65.6262 4.24658 43.9025 4.24658C22.1788 4.24658 4.56824 21.8571 4.56824 43.5808C4.56824 65.3045 22.1788 82.9151 43.9025 82.9151Z" fill="#FEE46F"/>
<path d="M83.2367 43.5808C83.2367 21.9894 65.8392 4.46428 44.2982 4.25146V82.9099C65.8392 82.6971 83.2367 65.1722 83.2367 43.5808Z" fill="#FED330"/>
<path d="M44.298 87.9649C20.046 87.9649 0.315552 68.2345 0.315552 43.9825C0.315552 19.7305 20.046 0 44.298 0C68.55 0 88.2805 19.7305 88.2805 43.9825C88.2805 68.2345 68.55 87.9649 44.298 87.9649ZM44.298 7.97566C24.4437 7.97566 8.29121 24.1284 8.29121 43.9825C8.29121 63.8365 24.4437 79.9893 44.298 79.9893C64.1523 79.9893 80.3048 63.8367 80.3048 43.9825C80.3048 24.1282 64.1523 7.97566 44.298 7.97566Z" fill="#44569B"/>
<path d="M88.2806 43.9825C88.2806 19.7305 68.5502 0 44.2982 0V7.97566C64.1524 7.97566 80.3049 24.1284 80.3049 43.9825C80.3049 63.8365 64.1524 79.9893 44.2982 79.9893V87.9649C68.5502 87.9649 88.2806 68.2345 88.2806 43.9825Z" fill="#203F7C"/>
<path d="M34.0476 44.1576C34.0476 42.9793 34.2467 41.8476 34.6081 40.7915H20.7484L20.8175 44.0813C20.995 52.5215 25.5501 60.2962 32.7049 64.3718L35.4999 65.9637L42.2729 54.1181C37.5876 53.1835 34.0476 49.0731 34.0476 44.1576Z" fill="#44569B"/>
<path d="M67.798 40.7915H53.9882C54.3496 41.8476 54.5488 42.9793 54.5488 44.1576C54.5488 48.8466 51.3268 52.8019 46.9626 53.9677L54.2382 65.5027L56.9687 63.7596C63.781 59.4112 67.8477 52.0293 67.8477 44.0134C67.848 43.9422 67.798 40.7915 67.798 40.7915Z" fill="#203F7C"/>
<path d="M44.2982 33.8169C47.2384 33.8169 49.8916 35.074 51.7626 37.0812L58.4884 24.7011L55.6274 23.1719C52.2416 21.3623 48.4129 20.4058 44.5554 20.4058C40.4546 20.4058 36.4157 21.4784 32.8754 23.5075L30.0417 25.1316L37.0028 36.9027C38.8627 34.9994 41.4459 33.8169 44.2982 33.8169Z" fill="#44569B"/>
<path d="M51.7625 37.0812L58.4884 24.7011L55.6273 23.1719C52.2416 21.3623 48.4129 20.4058 44.5553 20.4058C44.4694 20.4058 44.3841 20.4091 44.2982 20.4099V33.8169C47.2384 33.8169 49.8915 35.074 51.7625 37.0812Z" fill="#203F7C"/>
<path d="M44.2936 50.0572C47.5782 50.0572 50.2409 47.3945 50.2409 44.1099C50.2409 40.8253 47.5782 38.1626 44.2936 38.1626C41.0089 38.1626 38.3463 40.8253 38.3463 44.1099C38.3463 47.3945 41.0089 50.0572 44.2936 50.0572Z" fill="#44569B"/>
<path d="M50.2406 44.1099C50.2406 40.8268 47.5805 38.1654 44.2982 38.1626V50.0569C47.5805 50.0544 50.2406 47.3927 50.2406 44.1099Z" fill="#203F7C"/>
<path d="M110.482 113.079H56.6541C46.7669 113.079 38.7229 105.035 38.7229 95.1479C38.7229 85.3565 46.6106 77.3731 56.3659 77.2191C57.9075 68.6607 64.8751 61.9637 73.566 60.8285C74.254 50.2012 83.1537 41.7476 93.9417 41.7476C105.2 41.7476 114.36 50.9073 114.36 62.1657V69.4991C124.206 71.3254 131.684 79.9785 131.684 90.3455V91.8772C131.684 103.568 122.173 113.079 110.482 113.079Z" fill="#E4F5FE"/>
<path d="M114.36 69.4993V62.166C114.36 50.9699 105.301 41.8533 94.1279 41.7524V113.079H110.483C122.173 113.079 131.684 103.568 131.684 91.8775V90.3457C131.684 79.9787 124.206 71.3257 114.36 69.4993Z" fill="#D7E9FE"/>
<path d="M40.8146 126.518L48.5809 118.751L54.0522 124.223L46.286 131.989L40.8146 126.518Z" fill="#36D9F6"/>
<path d="M59.5752 126.521L67.3413 118.755L72.8126 124.226L65.0466 131.992L59.5752 126.521Z" fill="#36D9F6"/>
<path d="M78.3359 126.521L86.1022 118.755L91.5736 124.227L83.8073 131.993L78.3359 126.521Z" fill="#36D9F6"/>
<path d="M97.097 126.525L104.863 118.759L110.334 124.23L102.568 131.996L97.097 126.525Z" fill="#1FC0EF"/>
</svg>
