<svg width="151" height="151" viewBox="0 0 151 151" fill="none" xmlns="http://www.w3.org/2000/svg">
<path d="M0 5.17312L0.0465977 5.12652C5.97571 -0.80259 15.589 -0.80259 21.5184 5.12652L21.565 5.17312L21.6116 5.21971C27.5407 11.1488 37.154 11.1488 43.0834 5.21971L43.13 5.17312L43.1766 5.12652C49.1057 -0.80259 58.7189 -0.80259 64.6484 5.12652L64.6949 5.17312L64.7415 5.21971C70.6707 11.1488 80.2839 11.1488 86.2133 5.21971L86.2599 5.17312L86.3065 5.12652C92.2356 -0.80259 101.849 -0.80259 107.778 5.12652L107.825 5.17312L107.872 5.21971C113.801 11.1488 123.414 11.1488 129.343 5.21971L129.39 5.17312L129.436 5.12652C135.366 -0.80259 144.979 -0.80259 150.908 5.12652L151 5.21971V150.32H0L0 5.17312Z" fill="#B4D241"/>
<path d="M150.907 5.12652C144.978 -0.80259 135.364 -0.80259 129.435 5.12652L129.388 5.17312L129.342 5.21971C123.413 11.1488 113.799 11.1488 107.87 5.21971L107.823 5.17312L107.777 5.12652C101.848 -0.80259 92.2345 -0.80259 86.3051 5.12652L86.2585 5.17312L86.2119 5.21971C83.2538 8.17837 79.3779 9.66006 75.5 9.66596V150.32H151V5.21971L150.907 5.12652Z" fill="#8CA52D"/>
<path d="M34.2481 57.1309C39.1345 57.1309 43.0958 53.1696 43.0958 48.2832C43.0958 43.3968 39.1345 39.4355 34.2481 39.4355C29.3617 39.4355 25.4005 43.3968 25.4005 48.2832C25.4005 53.1696 29.3617 57.1309 34.2481 57.1309Z" fill="#D2EB5A"/>
<path d="M125.769 124.034C130.655 124.034 134.616 120.072 134.616 115.186C134.616 110.3 130.655 106.338 125.769 106.338C120.882 106.338 116.921 110.3 116.921 115.186C116.921 120.072 120.882 124.034 125.769 124.034Z" fill="#B4D241"/>
<path d="M46.5977 122.615C55.9628 122.615 63.5548 115.023 63.5548 105.658C63.5548 96.2926 55.9628 88.7007 46.5977 88.7007C37.2325 88.7007 29.6405 96.2926 29.6405 105.658C29.6405 115.023 37.2325 122.615 46.5977 122.615Z" fill="#D2EB5A"/>
<path d="M103.925 82.9098C113.291 82.9098 120.883 75.3179 120.883 65.9527C120.883 56.5876 113.291 48.9956 103.925 48.9956C94.5603 48.9956 86.9683 56.5876 86.9683 65.9527C86.9683 75.3179 94.5603 82.9098 103.925 82.9098Z" fill="#B4D241"/>
<path d="M59.1313 58.5796H67.9789V67.4272H59.1313V58.5796Z" fill="#D2EB5A"/>
<path d="M71.0762 26.8867H79.9238V35.7344H71.0762V26.8867Z" fill="#D2EB5A"/>
<path d="M75.5 26.8867H79.9238V35.7344H75.5V26.8867Z" fill="#B4D241"/>
<path d="M86.0676 115.568H94.9153V124.416H86.0676V115.568Z" fill="#B4D241"/>
<path d="M124.294 38.3179H133.142V47.1655H124.294V38.3179Z" fill="#B4D241"/>
<path d="M17.8799 74.7627H26.7276V83.6104H17.8799V74.7627Z" fill="#D2EB5A"/>
</svg>
