<svg width="19" height="15" viewBox="0 0 19 15" fill="none" xmlns="http://www.w3.org/2000/svg">
<path opacity="0.3" d="M18.2737 2.21811C17.5987 2.50281 16.8828 2.68971 16.1497 2.77262C16.9121 2.3362 17.4986 1.6465 17.7746 0.823489C17.0487 1.23382 16.2546 1.52291 15.4264 1.67827C14.7275 0.967226 13.7501 0.564477 12.7275 0.566167C10.6861 0.566167 9.02929 2.14296 9.02929 4.08804C9.02929 4.36442 9.06194 4.6338 9.12588 4.89101C6.05208 4.74389 3.32787 3.34226 1.5036 1.21095C1.18506 1.73052 1.00337 2.3362 1.00337 2.98186C1.00337 4.20328 1.65596 5.28154 2.64802 5.91328C2.06066 5.89613 1.48618 5.74504 0.972784 5.47269V5.51761C0.972784 7.22366 2.24761 8.64731 3.93849 8.97156C3.39392 9.11202 2.82294 9.13263 2.26877 9.03181C2.73956 10.4314 4.10569 11.4495 5.7232 11.479C4.4578 12.4222 2.86352 12.9864 1.13056 12.9864C0.835882 12.9861 0.54147 12.9696 0.248779 12.9371C1.88515 13.9361 3.82936 14.52 5.91754 14.52C12.7195 14.52 16.4384 9.15187 16.4384 4.49664C16.4384 4.34438 16.4384 4.19211 16.4269 4.04094C17.1505 3.54219 17.7754 2.925 18.2725 2.21811H18.2737Z" fill="white"/>
</svg>
